<?xml version="1.0" encoding="UTF-8"?>
<svg version="1.1" xmlns="http://www.w3.org/2000/svg" width="2550" height="3300">
<path d="M0 0 C9.53784661 -0.01756419 19.07568745 -0.03079709 28.61354685 -0.03885913 C33.04482002 -0.04273317 37.47608194 -0.0479671 41.90734863 -0.05657959 C65.54897987 -0.10128718 89.11767892 -0.07346816 112.69976807 1.81640625 C115.17359272 2.01385536 117.64801513 2.20240908 120.12255859 2.390625 C206.07997444 9.01964746 291.34567351 25.76905237 512 120 C513.02657715 120.60440918 514.0531543 121.20881836 515.11083984 121.83154297 C527.66361824 129.2385323 540.09760816 136.80160417 552.25390625 144.84472656 C553.83227166 145.88902538 555.41583635 146.92545553 557 147.9609375 C577.75546201 161.62494999 598.05727828 176.11017971 617.234375 191.91796875 C620.79215359 194.84720645 624.41938151 197.678213 628.0625 200.5 C638.38256959 208.53490081 648.13387918 217.25384866 657.8203125 226.03515625 C659.7983952 227.81826664 661.798558 229.57014769 663.8125 231.3125 C672.61287094 238.99508189 681.11353012 246.96856428 689.26953125 255.33203125 C691.41880147 257.43210501 693.58882645 259.38759187 695.8671875 261.33984375 C699.97190346 264.89777857 703.64825967 268.74626137 707.3125 272.75 C711.79199374 277.59197026 716.3064766 282.36474103 721 287 C724.53844368 290.50201853 727.90284919 294.06524188 731.1328125 297.8515625 C733.02820841 300.03245738 734.9802652 302.15455746 736.94580078 304.2722168 C741.7814687 309.48373523 746.36925754 314.8213201 750.828125 320.36328125 C752.93756349 322.92420028 755.12887648 325.37123455 757.375 327.8125 C761.35755281 332.1877959 765.0181807 336.74729266 768.64111328 341.41870117 C771.58768486 345.21503119 774.58781875 348.95789857 777.64135742 352.66870117 C785.08780824 361.72446235 792.14626379 371.04418346 799.12255859 380.46533203 C800.96904024 382.95820232 802.82198264 385.44616191 804.67578125 387.93359375 C812.01510452 397.80574609 819.13803178 407.79082416 826 418 C826.72493652 419.07717285 827.44987305 420.1543457 828.19677734 421.26416016 C849.6532928 453.17385682 869.96969842 485.68093871 889.23681641 518.95898438 C892.43766242 524.47957949 895.65776471 529.98894587 898.875 535.5 C900.05997319 537.53120487 901.24487657 539.56245047 902.4296875 541.59375 C902.92710449 542.44646484 903.42452148 543.29917969 903.93701172 544.17773438 C904.28779785 544.77908203 904.63858398 545.38042969 905 546 C911.22449508 535.52986798 917.41676012 525.04425303 923.46728516 514.47241211 C931.68120209 500.12794404 940.22710919 486.00896618 949 472 C949.42976135 471.31212402 949.85952271 470.62424805 950.30230713 469.91552734 C957.47923551 458.43845219 964.83255443 447.0917464 972.35449219 435.83789062 C974.00281755 433.37078287 975.64614964 430.90040196 977.2890625 428.4296875 C986.58520297 414.47899123 996.14495192 400.72161896 1006.125 387.25 C1006.71063721 386.45762939 1007.29627441 385.66525879 1007.8996582 384.84887695 C1012.85077948 378.16720089 1017.88354272 371.555975 1023 365 C1023.4444043 364.42942871 1023.88880859 363.85885742 1024.34667969 363.27099609 C1029.76204694 356.32272747 1035.23404766 349.42837325 1040.8359375 342.62890625 C1042.26513224 340.89271842 1043.68717276 339.1506136 1045.1015625 337.40234375 C1053.99048273 326.42856769 1063.27932705 315.80426458 1072.8203125 305.39453125 C1074.66245032 303.37082071 1076.46488137 301.32375721 1078.25 299.25 C1089.23703208 286.65859245 1101.02615343 274.81350147 1112.85205078 263.01757812 C1115.39603328 260.4790115 1117.93455128 257.9350667 1120.47265625 255.390625 C1122.1142624 253.74967888 1123.75617831 252.10904256 1125.3984375 250.46875 C1126.14443207 249.7207312 1126.89042664 248.9727124 1127.6590271 248.20202637 C1131.7267536 244.152233 1135.88058775 240.26502769 1140.23616028 236.52572632 C1142.99969536 234.13526071 1145.64803354 231.62454133 1148.3125 229.125 C1153.1810575 224.59098306 1158.19332164 220.31507219 1163.3828125 216.1484375 C1166.01841613 213.98488228 1168.54423375 211.7361044 1171.0625 209.4375 C1175.87490925 205.0632693 1180.88199875 201.00922336 1186 197 C1186.99128906 196.21367188 1187.98257812 195.42734375 1189.00390625 194.6171875 C1203.8182995 182.8792514 1218.71626934 171.21522686 1234.43945312 160.71191406 C1236.98457618 159.01031196 1239.5237151 157.29997132 1242.06233215 155.58868408 C1275.89331417 132.7972506 1310.62809929 112.24624391 1347.08972168 93.95837402 C1348.88676723 93.05680813 1350.68220828 92.15204609 1352.47753906 91.24707031 C1382.04612864 76.41436015 1412.75805946 63.84079851 1444 53 C1444.68368652 52.7615033 1445.36737305 52.52300659 1446.07177734 52.27728271 C1469.13118243 44.23641596 1492.36805075 37.15650106 1516 31 C1517.11444489 30.7086618 1517.11444489 30.7086618 1518.25140381 30.41143799 C1575.26599135 15.54418639 1633.64401041 6.63304207 1692.375 2.3125 C1693.61478104 2.22109238 1693.61478104 2.22109238 1694.87960815 2.12783813 C1700.58422029 1.71316607 1706.2911193 1.35022143 1712 1 C1712.73330127 0.95312892 1713.46660254 0.90625784 1714.22212505 0.85796642 C1733.04640263 -0.30899745 1751.89065942 -0.11757812 1770.74133301 -0.06866455 C1775.180415 -0.05827412 1779.619503 -0.0538339 1784.05859375 -0.04882812 C1792.70574527 -0.03823272 1801.35286813 -0.02125799 1810 0 C1810.05145692 66.32651717 1810.09915005 132.65303672 1810.12702942 198.97956848 C1810.12765068 200.45378742 1810.12765068 200.45378742 1810.12828448 201.95778856 C1810.13726475 223.32075701 1810.14557508 244.68372567 1810.15319599 266.04669465 C1810.15693776 276.52421249 1810.16082745 287.00173028 1810.16479492 297.47924805 C1810.1651872 298.52184592 1810.16557948 299.56444379 1810.16598364 300.63863554 C1810.17875079 334.38720662 1810.20127206 368.13576256 1810.22889166 401.88432448 C1810.25724013 436.58679384 1810.27566806 471.28925482 1810.28174497 505.99173556 C1810.28260934 510.90154212 1810.28358625 515.81134865 1810.28463173 520.72115517 C1810.284834 521.68740524 1810.28503627 522.65365531 1810.28524467 523.64918568 C1810.28877961 539.15680651 1810.30266611 554.66440134 1810.3204961 570.1720116 C1810.33822998 585.790451 1810.34488598 601.40886481 1810.34050413 617.02731391 C1810.33823523 626.28831828 1810.34418973 635.54922847 1810.36239263 644.81021571 C1810.37375658 651.02035012 1810.373912 657.23042386 1810.36549544 663.44056269 C1810.36102535 666.96377729 1810.36090981 670.48681562 1810.37464955 674.01001026 C1810.44961828 697.3764759 1808.91501141 720.53719525 1804.75 743.5625 C1804.43421997 745.33379272 1804.43421997 745.33379272 1804.11206055 747.14086914 C1797.14587861 784.91968455 1784.96060275 821.91091868 1767.06738281 855.95507812 C1765.87664742 858.23632233 1764.71556438 860.53154905 1763.5546875 862.828125 C1746.86144565 895.60127377 1725.74774084 925.94217096 1702 954 C1701.55237305 954.53109375 1701.10474609 955.0621875 1700.64355469 955.609375 C1694.10735053 963.35340341 1687.41247646 970.91974316 1680.51391602 978.3425293 C1679.41761865 979.54278133 1678.33664688 980.75709085 1677.26538086 981.97973633 C1670.25011817 989.94284795 1662.74616246 997.40512679 1655.23413086 1004.89624023 C1652.9355279 1007.18946748 1650.6423397 1009.4880124 1648.34960938 1011.78710938 C1646.86750813 1013.26855 1645.3850968 1014.7496805 1643.90234375 1016.23046875 C1643.22815903 1016.9066777 1642.5539743 1017.58288666 1641.85935974 1018.27958679 C1638.18303006 1021.93811701 1634.44878399 1025.45430872 1630.45938969 1028.77054596 C1628.53536217 1030.51469043 1626.86499786 1032.23495746 1625.14643574 1034.16558647 C1619.29803513 1040.50797942 1614.37612164 1045.08572546 1605.48294067 1045.56330872 C1602.27777646 1045.64684663 1599.09135387 1045.56985454 1595.88720703 1045.47583008 C1594.11176831 1045.47215447 1592.3363099 1045.47423834 1590.56088257 1045.48158264 C1585.78323196 1045.48528366 1581.00990204 1045.4093559 1576.23324823 1045.31812119 C1571.22602956 1045.2363515 1566.21869032 1045.22917886 1561.21090698 1045.21379089 C1551.74728045 1045.17352991 1542.28562733 1045.06705461 1532.82286632 1044.93624753 C1522.04189019 1044.79048246 1511.26081526 1044.71935039 1500.4790976 1044.65420687 C1478.31830076 1044.51865286 1456.15927514 1044.29028323 1434 1044 C1436.24739791 1041.66604146 1438.10895098 1040.30249135 1441.078125 1038.9765625 C1441.89732422 1038.60233154 1442.71652344 1038.22810059 1443.56054688 1037.8425293 C1444.44806641 1037.44074463 1445.33558594 1037.03895996 1446.25 1036.625 C1485.09596512 1018.55326935 1521.34951929 993.69669747 1554.28076172 966.41503906 C1555.81171112 965.15497335 1557.35980647 963.91580531 1558.91015625 962.6796875 C1565.69421724 957.26442821 1572.00908387 951.42330475 1578.3125 945.46484375 C1580.53682974 943.3637694 1582.77632309 941.28748776 1585.0625 939.25390625 C1593.92516606 931.34253179 1601.95257745 922.72811716 1610 914 C1610.86882812 913.06929687 1611.73765625 912.13859375 1612.6328125 911.1796875 C1618.27968111 905.04706675 1623.41104922 898.55217633 1628.49365234 891.95214844 C1630.06749444 889.91253071 1631.65254662 887.8819441 1633.23828125 885.8515625 C1643.85729147 872.19162547 1653.3828485 858.00210849 1662 843 C1662.45632813 842.20770996 1662.91265625 841.41541992 1663.3828125 840.59912109 C1687.8155031 797.85007854 1705.306225 748.07452968 1705.11352539 698.33128357 C1705.11374655 696.80165389 1705.11374655 696.80165389 1705.11397219 695.2411226 C1705.11327753 691.83838001 1705.10543991 688.43569218 1705.09765625 685.03295898 C1705.09575341 682.56310653 1705.0943149 680.09325367 1705.09329987 677.62340069 C1705.09017038 672.26094107 1705.08402511 666.89849758 1705.07530212 661.53604507 C1705.06243402 653.56204011 1705.05604163 645.58803889 1705.05127805 637.61402541 C1705.0437267 625.01982054 1705.03332848 612.42562034 1705.02076155 599.83141953 C1704.98721798 566.08883431 1704.97389146 532.34624185 1704.9691298 498.60364112 C1704.96874892 495.96906993 1704.96831563 493.33449875 1704.96787834 490.69992757 C1704.95507062 408.73434399 1705.19067421 326.76998428 1705.49088573 244.80502111 C1705.50308868 241.4678249 1705.51521335 238.13062841 1705.52733526 234.79343191 C1705.67602317 193.86225209 1705.83260703 152.93110787 1706 112 C1698.44878681 112.65345923 1690.89818982 113.31373535 1683.34794617 113.978302 C1680.79043926 114.20265578 1678.23280514 114.42556502 1675.67503357 114.6468811 C1586.54250851 122.36577243 1498.91045803 142.2776231 1218 311 C1216.39619035 312.43789831 1214.79201572 313.87538961 1213.1875 315.3125 C1202.53832787 324.91731401 1192.1374849 334.69790634 1182.01367188 344.85595703 C1180.10921495 346.76582994 1178.19939181 348.67022149 1176.2890625 350.57421875 C1170.85846482 356.00186286 1165.4669266 361.41044551 1160.49072266 367.26416016 C1157.81299734 370.38217964 1154.95175105 373.33018438 1152.125 376.3125 C1147.20506227 381.5394866 1142.54625318 386.85862862 1138.06640625 392.46875 C1135.99887218 395.00138153 1133.83886659 397.4073116 1131.625 399.8125 C1127.64244719 404.1877959 1123.9818193 408.74729266 1120.35888672 413.41870117 C1117.41224454 417.21512215 1114.41206051 420.95809437 1111.35839844 424.66894531 C1098.54913046 440.24694395 1086.69657149 456.57718741 1075 473 C1074.16734619 474.16668213 1074.16734619 474.16668213 1073.31787109 475.35693359 C1063.8401412 488.66683372 1054.82389292 502.24918595 1046 516 C1045.23139648 517.19544434 1045.23139648 517.19544434 1044.44726562 518.41503906 C1029.85337984 541.16318547 1016.01040966 564.3116455 1003 588 C1001.98588264 589.83344705 1000.97156501 591.66678333 999.95703125 593.5 C992.03762419 607.86076811 984.44844659 622.39023115 977 637 C976.63845825 637.70870239 976.2769165 638.41740479 975.90441895 639.14758301 C966.90564831 656.80239672 958.05713666 674.51209667 949.875 692.5625 C949.58706573 693.19722229 949.29913147 693.83194458 949.00247192 694.48590088 C943.83154784 705.91888376 938.94360212 717.46492838 934 729 C967.33 729 1000.66 729 1035 729 C1032.93639479 735.19081564 1030.82763685 740.83274417 1028.0078125 746.64453125 C1027.62587738 747.44303497 1027.24394226 748.2415387 1026.85043335 749.0642395 C1026.03544529 750.76688276 1025.21813983 752.46841843 1024.39868164 754.16891479 C1022.22632406 758.67774352 1020.07184233 763.19511956 1017.9140625 767.7109375 C1017.27111237 769.05450569 1017.27111237 769.05450569 1016.61517334 770.42521667 C1013.19580559 777.57427575 1009.82714919 784.74497827 1006.5 791.9375 C1006.00105225 793.01539795 1005.50210449 794.0932959 1004.98803711 795.20385742 C1003.63493167 798.12977084 1002.28310731 801.05627243 1000.93170166 803.98297119 C997.52147315 811.36573055 994.10464386 818.74543959 990.6875 826.125 C990.0794754 827.43830292 990.0794754 827.43830292 989.45916748 828.77813721 C983.56096538 841.51469845 977.61696885 854.22879776 971.62930298 866.92352295 C966.11066014 878.62392582 960.64647632 890.34845264 955.20703125 902.0859375 C951.8379209 909.35475941 948.45190495 916.61562647 945.0625 923.875 C944.6269429 924.8079892 944.6269429 924.8079892 944.18258667 925.75982666 C941.82709252 930.80536553 939.47088306 935.85057025 937.11462402 940.89575195 C930.6590682 954.71852947 924.20579964 968.54235081 917.77810669 982.37811279 C916.96877086 984.12019018 916.15907527 985.86210042 915.34936523 987.60400391 C912.19989678 994.38786624 909.08341776 1001.1858594 906 1008 C903 1007 903 1007 901.39697266 1004.2097168 C900.80865087 1002.96119676 900.23186131 1001.70720496 899.6640625 1000.44921875 C899.34862488 999.77234512 899.03318726 999.0954715 898.70819092 998.39808655 C897.67064462 996.16562632 896.64789488 993.92670643 895.625 991.6875 C894.90412243 990.12943602 894.18227003 988.57182273 893.45947266 987.01464844 C891.9927816 983.85068999 890.53185612 980.68417411 889.07617188 977.51513672 C886.71509067 972.37573064 884.32955924 967.2479265 881.94287109 962.12036133 C880.36217312 958.7224268 878.78608044 955.32238775 877.2109375 951.921875 C873.82108087 944.60812894 870.41151823 937.30365759 867 930 C862.48784143 920.33895022 857.98706517 910.67273984 853.5 901 C847.27610642 887.58436668 841.02388266 874.18207871 834.76611328 860.78222656 C832.13425654 855.14634968 829.50419121 849.50963683 826.87399292 843.87298584 C825.41606887 840.74862288 823.95802854 837.62431419 822.5 834.5 C821.91666611 833.25000026 821.33333278 832.00000026 820.75 830.75 C820.46125 830.13125 820.1725 829.5125 819.875 828.875 C817.24999999 823.24999998 817.24999999 823.24999998 816.37501526 821.37503052 C815.79163329 820.12492775 815.20824909 818.87482603 814.62486267 817.62472534 C813.16725519 814.50130616 811.70968633 811.37786897 810.25219727 808.25439453 C807.32393716 801.97909135 804.39501208 795.7040999 801.46484375 789.4296875 C797.97401549 781.95431222 794.48552939 774.47784751 791 767 C790.69993042 766.35625427 790.39986084 765.71250854 790.09069824 765.04925537 C788.28163172 761.16762525 786.47403041 757.28531757 784.66824341 753.40216064 C783.83735862 751.61594058 783.00548648 749.8301799 782.17358398 748.04443359 C780.77433288 745.03323985 779.38326075 742.01856783 778 739 C777.66145996 738.26507324 777.32291992 737.53014648 776.97412109 736.77294922 C775.72200979 733.9759589 775 732.10683608 775 729 C808.33 728.67 841.66 728.34 876 728 C854.48357245 680.00181546 832.66547846 632.12137412 806.41699219 586.48730469 C804.70953287 583.4901311 803.05735357 580.46518266 801.40844727 577.43554688 C794.70679344 565.153654 787.360924 553.25501736 780.04394531 541.33398438 C778.23815229 538.38846245 776.44155698 535.43761986 774.6484375 532.484375 C761.61580103 511.11068772 747.52646513 490.38245977 733 470 C732.43941895 469.21270508 731.87883789 468.42541016 731.30126953 467.61425781 C724.38817794 457.92523005 717.33666315 448.37267493 710 439 C709.1314146 437.88418916 708.26292738 436.7683019 707.39453125 435.65234375 C697.33172814 422.75286168 687.01587291 410.06028148 676.38574219 397.62402344 C674.94270908 395.93285779 673.50625183 394.23625381 672.0703125 392.5390625 C665.80978838 385.16029613 659.38253834 377.97553093 652.76831055 370.91186523 C651.44070917 369.47648675 650.12669576 368.02852115 648.81958008 366.57446289 C640.9002484 357.8042251 632.59430691 349.44179348 624.22875977 341.09838867 C621.8030337 338.67805474 619.38274202 336.2523778 616.96289062 333.82617188 C615.39875825 332.26269988 613.83431594 330.69953788 612.26953125 329.13671875 C611.55787308 328.42303635 610.8462149 327.70935394 610.11299133 326.9740448 C606.11816895 322.99761509 602.02855419 319.19094273 597.75415039 315.51603699 C595.17042493 313.28303383 592.68635351 310.95260341 590.1875 308.625 C585.56219047 304.35160029 580.79918099 300.31116271 575.890625 296.36328125 C573.25314293 294.20696145 570.67779111 291.99840112 568.11035156 289.76025391 C560.4215771 283.06881344 552.43817635 276.84159017 544.2890625 270.72265625 C541.94618222 268.95949891 539.61317494 267.18386491 537.28125 265.40625 C518.7968103 251.36334702 499.80788211 238.11073073 480 226 C478.77651855 225.25024902 478.77651855 225.25024902 477.52832031 224.48535156 C407.95096785 181.97334659 332.71087977 150.72014784 158.3125 116.8125 C157.00039551 116.66981689 155.68829102 116.52713379 154.33642578 116.38012695 C143.35969594 115.23032932 132.35860412 114.35078399 121.36010742 113.44018555 C119.67238725 113.30006406 117.98467105 113.15989467 116.29695892 113.01967621 C112.19801825 112.67923182 108.09902432 112.33943571 104 112 C104.00526896 112.79473022 104.01053791 113.58946044 104.01596653 114.4082734 C104.65150935 210.6599491 105.1000788 306.90876478 104.99897289 403.162745 C104.99207724 409.74386064 104.98611261 416.32497693 104.98029327 422.9060936 C104.94355851 464.00297592 104.89360351 505.09982852 104.82267712 546.19666622 C104.7902283 565.17012802 104.76943099 584.14358074 104.75840485 603.11706704 C104.75129139 614.61358547 104.73497811 626.11000953 104.70560409 637.60649308 C104.68652461 645.37841763 104.67852072 653.150305 104.67900907 660.92225275 C104.67894674 665.36840316 104.67424348 669.81440542 104.65584183 674.26052094 C104.4562956 724.72952165 113.21780949 772.19624431 135 818 C135.37995117 818.80904785 135.75990234 819.6180957 136.15136719 820.45166016 C151.46679653 852.89158098 172.47584536 882.95921015 196.6640625 909.41796875 C197.90149843 910.78577001 199.13404304 912.15886857 200.32348633 913.56860352 C206.01217505 920.26598227 212.25969245 926.41035414 218.47875977 932.60913086 C220.43295624 934.5579687 222.38175147 936.51209272 224.33007812 938.46679688 C230.38140181 944.52169517 236.42415578 950.50861032 243 956 C244.04499213 956.90020503 245.08929082 957.80121583 246.1328125 958.703125 C281.62878745 988.91640916 320.41721185 1014.35633478 361.96386719 1035.43408203 C366.68910012 1037.87117145 371.34855417 1040.42544383 376 1043 C376 1043.33 376 1043.66 376 1044 C352.83420685 1044.21043092 329.66857174 1044.36904201 306.50201607 1044.46630955 C295.74483375 1044.51267729 284.98824597 1044.57586959 274.23144531 1044.67895508 C264.85355406 1044.76878309 255.47609346 1044.82675293 246.09778392 1044.84679645 C241.13377041 1044.8585096 236.17098865 1044.88594935 231.20737076 1044.95157051 C226.53010267 1045.01290194 221.85456722 1045.03145683 217.1769352 1045.01796913 C215.46527865 1045.02043452 213.75356103 1045.03819748 212.04225349 1045.07284927 C197.53372661 1045.3520879 197.53372661 1045.3520879 191.19503784 1039.69786072 C189.77369684 1038.15274851 188.3742599 1036.58713317 187 1035 C185.45576102 1033.5839905 183.8951273 1032.18547042 182.3125 1030.8125 C180.53932475 1029.21092236 178.76868513 1027.60653487 177 1026 C176.51063965 1025.55720703 176.0212793 1025.11441406 175.51708984 1024.65820312 C166.25173182 1016.24406921 157.35743925 1007.46374158 148.5 998.625 C147.93369873 998.06128693 147.36739746 997.49757385 146.78393555 996.91677856 C141.18082648 991.33387203 135.62446575 985.75066353 130.48535156 979.73046875 C128.11649792 976.97069974 125.61250742 974.33986493 123.125 971.6875 C117.82625534 965.98515128 112.87101964 960.07285619 108 954 C107.0172335 952.80726658 106.03275069 951.61594599 105.046875 950.42578125 C86.85161362 928.39773468 70.07077239 904.89075252 56 880 C55.55237305 879.21012695 55.10474609 878.42025391 54.64355469 877.60644531 C18.34310161 813.16648157 -0.43605189 743.74742918 -0.24453239 669.83525019 C-0.23754267 666.25310494 -0.24242817 662.67097022 -0.24568737 659.08882231 C-0.2497991 652.83507121 -0.24660921 646.58135851 -0.23841095 640.32761192 C-0.22625498 631.02877617 -0.22574725 621.72996421 -0.22749493 612.43112195 C-0.23011251 596.78295748 -0.22347895 581.13481 -0.21146011 565.48665047 C-0.19960115 550.00675433 -0.1919232 534.52686529 -0.18975449 519.04696465 C-0.18961701 518.08226195 -0.18947953 517.11755926 -0.18933788 516.12362315 C-0.18866116 511.2238179 -0.18805841 506.32401264 -0.18748413 501.42420738 C-0.18329016 466.77425519 -0.16983462 432.12431223 -0.15087891 397.47436523 C-0.13249205 363.82527719 -0.11833365 330.17619168 -0.10986328 296.52709961 C-0.10960023 295.48876774 -0.10933718 294.45043587 -0.10906615 293.3806394 C-0.10642897 282.95270093 -0.10387737 272.52476243 -0.10138843 262.09682392 C-0.09631684 240.85641418 -0.09067434 219.6160046 -0.08468628 198.37559509 C-0.0844117 197.39912698 -0.08413712 196.42265887 -0.08385422 195.41660082 C-0.06547195 130.27773004 -0.03378381 65.13886438 0 0 Z " fill="#000000" transform="translate(364,639)"/>
<path d="M0 0 C0.86701538 0.00215515 1.73403076 0.0043103 2.62731934 0.00653076 C17.39242711 0.06503925 31.86093319 0.79969448 46.4375 3.3125 C47.53320312 3.50054199 48.62890625 3.68858398 49.7578125 3.88232422 C101.61528716 13.16262685 150.31865495 36.74486278 188.77734375 72.83984375 C190.93101994 74.84171897 193.11730983 76.74437709 195.375 78.625 C205.45995806 87.41272279 214.06839813 97.90229602 222.10351562 108.55029297 C223.42496439 110.29594033 224.76620547 112.02494313 226.109375 113.75390625 C269.62872339 170.54673477 287.0450919 245.59530098 278.1875 316.0625 C269.1525517 381.05875407 237.7330723 446.86099189 186.4375 489.3125 C185.43645782 490.19526541 184.43800259 491.08096854 183.44140625 491.96875 C164.31353805 508.90111514 142.54025422 522.47919675 119.4375 533.3125 C118.42284668 533.79879883 118.42284668 533.79879883 117.38769531 534.29492188 C90.04166924 547.35077239 60.50346713 554.96090416 30.4375 558.3125 C29.64327637 558.4067627 28.84905273 558.50102539 28.03076172 558.59814453 C19.18668017 559.53893265 10.32133599 559.55603305 1.4375 559.5625 C0.60079773 559.56317474 -0.23590454 559.56384949 -1.09796143 559.56454468 C-70.41918611 559.47628257 -137.83338189 533.8341198 -188.5625 486.3125 C-189.93211782 485.1187964 -191.30674437 483.93080276 -192.6875 482.75 C-199.87608822 476.48754892 -206.45899597 469.62949598 -212.5625 462.3125 C-212.97306641 461.8263623 -213.38363281 461.34022461 -213.80664062 460.83935547 C-226.88199069 445.28081124 -238.09676246 428.28863248 -247.5625 410.3125 C-248.06789307 409.36528076 -248.06789307 409.36528076 -248.58349609 408.39892578 C-265.13246609 377.20652892 -275.26723504 342.44922061 -278.5625 307.3125 C-278.72878906 305.61673828 -278.72878906 305.61673828 -278.8984375 303.88671875 C-284.88696815 231.134164 -262.54600034 158.8789129 -216.5625 102.3125 C-214.29292654 99.69261471 -211.98516824 97.11958926 -209.63671875 94.5703125 C-207.77229587 92.54086537 -205.97475446 90.47215844 -204.1875 88.375 C-197.19684413 80.38567901 -189.66217947 73.1485482 -181.3515625 66.546875 C-179.48420712 65.05089842 -177.64526354 63.51878822 -175.8359375 61.953125 C-127.99878223 20.57332677 -62.65386228 -0.28361831 0 0 Z M-118.09570312 152.88085938 C-119.63460882 154.38288051 -121.19877044 155.85531933 -122.765625 157.328125 C-150.92887255 184.17396492 -167.50339814 221.02944563 -172.5625 259.3125 C-172.69398437 260.26898437 -172.82546875 261.22546875 -172.9609375 262.2109375 C-176.99971954 297.6867257 -168.4214995 333.18639704 -151.5625 364.3125 C-151.22379883 364.9401123 -150.88509766 365.56772461 -150.53613281 366.21435547 C-128.55874681 406.29751769 -89.61647928 434.67471402 -46.25732422 447.56933594 C-19.99066202 454.81301412 8.76996674 456.08582491 35.4375 450.3125 C36.21561035 450.14621094 36.9937207 449.97992187 37.79541016 449.80859375 C69.92373393 442.69093433 97.50181929 426.67683068 121.4375 404.3125 C122.75041016 403.09820313 122.75041016 403.09820313 124.08984375 401.859375 C155.63921629 371.62267363 172.95973816 327.5739779 174.4375 284.3125 C174.7048414 255.86451062 169.02183856 228.85342378 156.4375 203.3125 C156.11523438 202.65024414 155.79296875 201.98798828 155.4609375 201.30566406 C150.69614812 191.61629055 144.98694111 182.88425243 138.4375 174.3125 C137.39335938 172.92998047 137.39335938 172.92998047 136.328125 171.51953125 C107.8101924 135.22885386 65.81673178 112.62516856 20.25 106.7265625 C-29.83840428 101.58287704 -81.84301983 117.32438673 -118.09570312 152.88085938 Z " fill="#000000" transform="translate(1733.5625,1003.6875)"/>
<path d="M0 0 C9.72903652 8.95925078 18.92108731 18.32407705 26.98095703 28.82421875 C27.98262834 30.08667821 28.98530925 31.34833702 29.98876953 32.609375 C58.89672969 69.26162098 77.34345897 112.07279956 85.98095703 157.82421875 C86.16029785 158.73349121 86.33963867 159.64276367 86.52441406 160.57958984 C92.0819888 189.96795677 91.74524557 224.50153356 85.98095703 253.82421875 C85.78759766 254.860625 85.59423828 255.89703125 85.39501953 256.96484375 C73.12653033 321.48800918 38.37087734 383.28845466 -14.01904297 423.82421875 C-15.26047479 424.81702548 -16.50131954 425.81056658 -17.74169922 426.8046875 C-75.54840815 472.62530131 -150.02527613 492.1731335 -223.02783203 484.17919922 C-282.00304954 477.18034464 -342.03929443 451.46416299 -383.64794922 408.1953125 C-385.1363554 406.64943269 -385.1363554 406.64943269 -387.51904297 404.88671875 C-390.37089545 402.53394045 -392.62678553 399.94268384 -395.01904297 397.1328125 C-397.18492585 394.63274065 -399.44319784 392.23627726 -401.70654297 389.82421875 C-440.7248632 346.95735404 -462.21836177 290.75708568 -469.01904297 233.82421875 C-469.24720703 231.93509766 -469.24720703 231.93509766 -469.47998047 230.0078125 C-475.93749059 160.28415597 -454.45305974 86.46540284 -410.06201172 32.15234375 C-407.87643495 29.53441882 -405.65588751 26.94875284 -403.3984375 24.39233398 C-402.41225205 23.2712244 -401.43503321 22.1422017 -400.46386719 21.00805664 C-389.80598126 8.62207284 -378.08225518 -3.32756045 -365.01904297 -13.17578125 C-363.85807526 -14.08750933 -362.69798265 -15.00035238 -361.53857422 -15.9140625 C-284.14236072 -76.19590202 -176.77492094 -90.75172448 0 0 Z M-317.67138672 87.50390625 C-328.76162629 99.31247097 -337.60758407 112.45937277 -345.01904297 126.82421875 C-345.33856934 127.44264648 -345.6580957 128.06107422 -345.98730469 128.69824219 C-366.41994549 168.87994356 -369.44444699 215.96993999 -356.01904297 258.82421875 C-355.81472656 259.48373535 -355.61041016 260.14325195 -355.39990234 260.82275391 C-349.55649873 279.1274476 -339.97285511 296.81158183 -328.01904297 311.82421875 C-327.58769043 312.36691406 -327.15633789 312.90960937 -326.71191406 313.46875 C-297.05337682 350.45800272 -255.25146942 373.44966058 -208.13574219 379.17456055 C-161.54369973 383.7316852 -115.71349813 369.5685457 -79.55029297 339.98046875 C-43.54123991 309.30609022 -20.52957821 267.0583625 -16.55029297 219.62109375 C-14.15330448 185.29202314 -21.48031897 151.94914699 -38.01904297 121.82421875 C-38.54087158 120.87337402 -38.54087158 120.87337402 -39.07324219 119.90332031 C-48.89955258 102.26543045 -62.20447509 85.47016382 -78.01904297 72.82421875 C-78.96005859 72.05722656 -79.90107422 71.29023437 -80.87060547 70.5 C-146.72139525 17.73140347 -242.13266022 20.1344002 -317.67138672 87.50390625 Z " fill="#000000" transform="translate(989.01904296875,1076.17578125)"/>
<path d="M0 0 C33.99 0 67.98 0 103 0 C109.01407911 13.83238195 114.95963358 27.61003959 120.5 41.625 C121.11164035 43.16419718 121.72361989 44.70325962 122.3359375 46.2421875 C123.44151947 49.02213535 124.54528212 51.80278708 125.64648438 54.58447266 C126.46752418 56.65632454 127.30745761 58.72100081 128.18164062 60.77099609 C129 63 129 63 129 66 C129.66 66 130.32 66 131 66 C131.1724675 65.39074173 131.344935 64.78148346 131.52262878 64.15376282 C133.29612402 58.04794264 135.39738774 52.17637999 137.80078125 46.29296875 C138.15963913 45.40571609 138.51849701 44.51846344 138.88822937 43.60432434 C139.64328822 41.74046315 140.400544 39.87749055 141.15991211 38.01538086 C142.30445946 35.20722752 143.44084184 32.39587498 144.57617188 29.58398438 C155.58476776 2.41523224 155.58476776 2.41523224 158 0 C161.16612663 -0.09536242 164.31040628 -0.12550636 167.47680664 -0.11352539 C168.96932198 -0.11374443 168.96932198 -0.11374443 170.49198914 -0.1139679 C173.79806662 -0.11326831 177.10408854 -0.10547379 180.41015625 -0.09765625 C182.69559193 -0.09579223 184.98102801 -0.09436825 187.26646423 -0.09336853 C193.29498387 -0.08954207 199.32347959 -0.0797107 205.35198975 -0.06866455 C211.49832841 -0.05845317 217.64467093 -0.0538715 223.79101562 -0.04882812 C235.86068762 -0.03808854 247.93034182 -0.0210106 260 0 C259.5418253 1.4123496 259.08029179 2.82360978 258.61740112 4.23442078 C258.36075621 5.02043513 258.10411129 5.80644949 257.83968925 6.61628246 C256.49874727 10.42296084 254.76781786 14.01707964 253.0078125 17.64453125 C252.62587738 18.44303497 252.24394226 19.2415387 251.85043335 20.0642395 C251.03544529 21.76688276 250.21813983 23.46841843 249.39868164 25.16891479 C247.22632406 29.67774352 245.07184233 34.19511956 242.9140625 38.7109375 C242.48542908 39.60664963 242.05679565 40.50236176 241.61517334 41.42521667 C238.19580559 48.57427575 234.82714919 55.74497827 231.5 62.9375 C231.00105225 64.01539795 230.50210449 65.0932959 229.98803711 66.20385742 C228.63493167 69.12977084 227.28310731 72.05627243 225.93170166 74.98297119 C222.52147315 82.36573055 219.10464386 89.74543959 215.6875 97.125 C215.28215027 98.00053528 214.87680054 98.87607056 214.45916748 99.77813721 C208.56096538 112.51469845 202.61696885 125.22879776 196.62930298 137.92352295 C191.11066014 149.62392582 185.64647632 161.34845264 180.20703125 173.0859375 C176.8379209 180.35475941 173.45190495 187.61562647 170.0625 194.875 C169.7721286 195.4969928 169.4817572 196.1189856 169.18258667 196.75982666 C166.82709252 201.80536553 164.47088306 206.85057025 162.11462402 211.89575195 C155.6590682 225.71852947 149.20579964 239.54235081 142.77810669 253.37811279 C141.96877086 255.12019018 141.15907527 256.86210042 140.34936523 258.60400391 C137.19989678 265.38786624 134.08341776 272.1858594 131 279 C128 278 128 278 126.39697266 275.2097168 C125.80865087 273.96119676 125.23186131 272.70720496 124.6640625 271.44921875 C124.34862488 270.77234512 124.03318726 270.0954715 123.70819092 269.39808655 C122.67064462 267.16562632 121.64789488 264.92670643 120.625 262.6875 C119.90412243 261.12943602 119.18227003 259.57182273 118.45947266 258.01464844 C116.9927816 254.85068999 115.53185612 251.68417411 114.07617188 248.51513672 C111.71509067 243.37573064 109.32955924 238.2479265 106.94287109 233.12036133 C105.36217312 229.7224268 103.78608044 226.32238775 102.2109375 222.921875 C98.82108087 215.60812894 95.41151823 208.30365759 92 201 C87.48784143 191.33895022 82.98706517 181.67273984 78.5 172 C72.27610642 158.58436668 66.02388266 145.18207871 59.76611328 131.78222656 C57.13425654 126.14634968 54.50419121 120.50963683 51.87399292 114.87298584 C50.41606887 111.74862288 48.95802854 108.62431419 47.5 105.5 C46.91666611 104.25000026 46.33333278 103.00000026 45.75 101.75 C45.46125 101.13125 45.1725 100.5125 44.875 99.875 C42.25 94.25000001 42.25 94.25000001 41.37501526 92.37503052 C40.79163329 91.12492775 40.20824909 89.87482603 39.62486267 88.62472534 C38.16725519 85.50130616 36.70968633 82.37786897 35.25219727 79.25439453 C32.32393716 72.97909135 29.39501208 66.7040999 26.46484375 60.4296875 C22.97401549 52.95431222 19.48552939 45.47784751 16 38 C15.69993042 37.35625427 15.39986084 36.71250854 15.09069824 36.04925537 C13.28163172 32.16762525 11.47403041 28.28531757 9.66824341 24.40216064 C8.83735862 22.61594058 8.00548648 20.8301799 7.17358398 19.04443359 C5.77433288 16.03323985 4.38326075 13.01856783 3 10 C2.66145996 9.26507324 2.32291992 8.53014648 1.97412109 7.77294922 C0.72200979 4.9759589 0 3.10683608 0 0 Z " fill="#F6A817" transform="translate(1139,1368)"/>
<path d="M0 0 C1.7480826 1.52018443 3.47772642 3.06185325 5.1875 4.625 C6.03957031 5.38425781 6.89164063 6.14351562 7.76953125 6.92578125 C26.176918 24.20214577 35.41115871 49.43071559 36.41015625 74.3203125 C37.11540914 102.29261024 29.57646642 128.36776022 10.4453125 149.30078125 C-6.72783329 167.25735453 -31.15587198 178.03625841 -55.96875 178.9609375 C-86.90440228 179.40290989 -112.05480292 172.34825631 -134.8125 150.625 C-135.42609375 150.08617187 -136.0396875 149.54734375 -136.671875 148.9921875 C-153.37121262 133.74829673 -161.64374562 108.57547397 -162.93481445 86.53710938 C-164.06397579 57.74520088 -156.3777431 31.19040736 -136.8125 9.625 C-135.98878906 8.67947266 -135.98878906 8.67947266 -135.1484375 7.71484375 C-101.87971803 -28.25798347 -37.46112845 -29.82137652 0 0 Z M-101.8125 41.625 C-113.16487805 56.29843702 -114.78732457 71.7008063 -113.8125 89.625 C-111.84933139 104.24828741 -104.36328935 115.76402231 -92.9375 124.9375 C-81.56241509 132.81084309 -68.78418824 135.77359781 -55.0625 134.0625 C-40.26685567 131.15457979 -29.21565982 124.14227686 -20.79980469 111.61962891 C-11.99833757 97.77906254 -10.13824738 81.61577127 -13.05859375 65.70703125 C-16.63787 51.07465322 -24.74074079 38.79334742 -37.5625 30.875 C-59.20384853 18.956188 -85.09547488 23.53127869 -101.8125 41.625 Z " fill="#000000" transform="translate(525.8125,1783.375)"/>
<path d="M0 0 C14.85 0 29.7 0 45 0 C45.33 22.77 45.66 45.54 46 69 C51.445 65.04 51.445 65.04 57 61 C72.21944152 53.30665594 88.94054735 51.22379747 105.625 55.5625 C123.18423799 61.60371402 135.60095252 73.63162375 144 90 C154.16054555 111.43821915 155.00499047 136.98419685 147.8984375 159.48828125 C146.71844083 162.72756244 145.41993567 165.85905347 144 169 C143.37158203 170.39992188 143.37158203 170.39992188 142.73046875 171.828125 C134.68632167 188.05551103 120.8792689 198.14787525 104 204 C85.77350836 208.20960003 67.98206946 204.65229753 51.83984375 195.87890625 C48.8163555 193.87849656 46.47051289 191.64276883 44 189 C43.34 193.29 42.68 197.58 42 202 C28.14 202 14.28 202 0 202 C0 135.34 0 68.68 0 0 Z M50.56640625 103.77734375 C42.96993598 114.80011515 42.35815452 128.8330294 44.65625 141.6640625 C47.14382093 150.82089689 51.87804705 158.7878676 60.00390625 164 C68.90198974 168.45774828 78.22610948 169.19587768 87.69921875 166.125 C96.10736233 162.41666102 101.92003229 156.20957289 105.4375 147.75 C110.02710083 135.15432419 109.5041906 120.19389918 104 108 C99.64451958 100.55391841 94.01938485 95.79938149 85.94140625 92.765625 C72.41324073 89.24434951 59.33909436 92.9011228 50.56640625 103.77734375 Z " fill="#000000" transform="translate(592,1757)"/>
<path d="M0 0 C2.7710025 2.24663661 5.37977982 4.5738702 8 7 C8.33 2.38 8.66 -2.24 9 -7 C23.52 -7 38.04 -7 53 -7 C53 40.85 53 88.7 53 138 C38.15 138 23.3 138 8 138 C7.67 133.38 7.34 128.76 7 124 C5.5975 125.19625 4.195 126.3925 2.75 127.625 C-10.73588158 138.34162882 -25.87041928 142.51042395 -43 141 C-58.68466679 138.73670032 -72.51579146 131.58568582 -82.37890625 118.953125 C-98.19762299 97.19511093 -102.42126389 71.46408325 -98.38671875 45.03125 C-95.64649859 31.48103168 -88.44210719 18.01982694 -79 8 C-78.33613281 7.29488281 -77.67226562 6.58976562 -76.98828125 5.86328125 C-56.79618459 -13.73163695 -22.76330515 -16.42513529 0 0 Z M-45.33203125 36.2109375 C-54.0268299 45.53697446 -55.67032362 57.74184714 -55.28125 69.94140625 C-54.74826509 79.59065387 -51.05273388 88.93660635 -44.1484375 95.85546875 C-36.90413338 101.69997706 -29.28210036 103.61789912 -20.05859375 103.34765625 C-11.78075388 102.40675236 -4.55389825 99.28084828 1 93 C9.55475746 82.15462442 10.25714524 69.30019018 9 56 C6.95398717 45.30756009 1.83170874 37.39040742 -7.06640625 31.18359375 C-19.40314401 23.63201488 -35.00149331 26.95222138 -45.33203125 36.2109375 Z " fill="#000000" transform="translate(1454,1821)"/>
<path d="M0 0 C14.09299934 12.38667206 22.74396452 26.99871593 26 45.5625 C27.52039211 69.68325875 24.72310735 91.19717741 8.39794922 110.00463867 C-4.466227 124.08393394 -23.2810037 133.72933286 -42.49365234 134.68676758 C-68.38673023 135.40318561 -90.39457757 130.87818089 -109.81640625 112.96484375 C-125.09862467 97.12266618 -131.60989625 77.27964752 -131.25 55.4609375 C-129.90083023 34.42232146 -121.57013426 15.91096235 -106 1.5625 C-76.7442854 -23.2641731 -30.01947009 -23.65170371 0 0 Z M-77.7890625 33.703125 C-83.33071214 41.51057228 -85.56315323 49.41610177 -85.4375 58.9375 C-85.42775146 59.76822021 -85.41800293 60.59894043 -85.40795898 61.45483398 C-85.09072527 72.47628584 -81.9448006 79.50606517 -74.23828125 87.46484375 C-67.55221612 93.73084196 -60.15050526 96.41491121 -51 96.5625 C-41.56566045 95.76147117 -34.17716432 92.18602616 -27.6875 85.3125 C-19.20861001 75.17836854 -18.27587273 64.35980372 -19 51.5625 C-20.66999978 41.72659577 -25.73939955 33.11566396 -33.84765625 27.21875 C-48.5468662 17.47592106 -66.4735092 20.16399136 -77.7890625 33.703125 Z " fill="#000000" transform="translate(2154,1827.4375)"/>
<path d="M0 0 C2.19621476 1.64621929 4.2431422 3.36558671 6.27734375 5.20703125 C7.26734375 6.05974609 7.26734375 6.05974609 8.27734375 6.9296875 C22.36226923 19.88671856 29.39478772 38.10901911 30.49609375 56.94921875 C31.15972844 77.3559854 25.55682525 96.7064329 12.02734375 112.33203125 C-2.40101714 127.64571445 -20.89704905 136.72425246 -42.05859375 137.4453125 C-64.74750258 137.86603399 -85.3992951 133.96443885 -102.72265625 118.20703125 C-103.95048828 117.13388672 -103.95048828 117.13388672 -105.203125 116.0390625 C-117.57079464 104.56949897 -125.69144637 88.08210687 -126.94580078 71.20458984 C-127.76246795 48.51114153 -124.70690132 30.05907442 -109.72265625 12.20703125 C-109.00078125 11.21703125 -108.27890625 10.22703125 -107.53515625 9.20703125 C-81.6348188 -21.26395398 -31.18984984 -20.53965721 0 0 Z M-74.97265625 37.58203125 C-81.94020768 48.03335839 -83.22112974 59.82252352 -81.26171875 72.09375 C-78.60741538 82.03958085 -72.52340896 90.24838415 -63.62890625 95.42578125 C-54.9055091 99.72604745 -46.90508476 99.93794662 -37.61328125 97.26953125 C-28.82337424 94.03864651 -23.08532682 88.46897992 -18.72265625 80.20703125 C-16.12927195 74.06863074 -15.19957826 68.46975869 -15.28515625 61.83203125 C-15.29272949 61.00276123 -15.30030273 60.17349121 -15.30810547 59.3190918 C-15.58144852 49.10863145 -18.62340306 40.68338103 -25.72265625 33.20703125 C-33.02446306 26.41465283 -40.92780797 23.52886501 -50.890625 23.86328125 C-61.36427791 25.13456602 -67.93235902 30.15060639 -74.97265625 37.58203125 Z " fill="#000000" transform="translate(1768.72265625,1824.79296875)"/>
<path d="M0 0 C15.63545648 11.8961277 25.38305375 28.1295892 28.40234375 47.59375 C29.4130442 56.56544715 28.90280459 64.9719541 28 74 C-4.67 74 -37.34 74 -71 74 C-65.33457306 85.33085389 -60.88741834 92.72971384 -49.2265625 97.2578125 C-48.49179687 97.50273438 -47.75703125 97.74765625 -47 98 C-46.32710937 98.22429687 -45.65421875 98.44859375 -44.9609375 98.6796875 C-33.37064349 101.84856938 -20.93962931 100.79905357 -10 96 C-6.94417283 94.24899228 -4.03342004 92.40396477 -1.14453125 90.390625 C1 89 1 89 3 89 C4.41699219 90.70898438 4.41699219 90.70898438 6.046875 93.09375 C6.9440625 94.393125 6.9440625 94.393125 7.859375 95.71875 C8.48328125 96.6365625 9.1071875 97.554375 9.75 98.5 C10.9726409 100.28215454 12.19658578 102.06341523 13.421875 103.84375 C14.31422852 105.14119141 14.31422852 105.14119141 15.22460938 106.46484375 C17.73016722 110.04263702 20.34433796 113.53268132 23 117 C18.5695229 126.55868653 5.2782964 131.54187368 -4.04296875 135.19140625 C-25.76634939 142.80723569 -51.39291354 142.9637529 -72.48022461 133.21313477 C-79.23836953 129.88437796 -85.4059153 126.08256334 -91 121 C-91.74507812 120.34644531 -92.49015625 119.69289063 -93.2578125 119.01953125 C-107.59739868 105.67642478 -114.19665639 87.28937546 -115 68 C-115.3824956 47.41217411 -109.92625767 27.59740859 -96 12 C-95.35675781 11.25234375 -94.71351563 10.5046875 -94.05078125 9.734375 C-71.0017091 -15.31711192 -27.70128781 -18.61719966 0 0 Z M-66 37 C-69.60689254 42.6340693 -69.60689254 42.6340693 -71 49 C-51.86 49 -32.72 49 -13 49 C-14.24338444 40.29630893 -17.16076953 36.05615895 -23.73046875 30.546875 C-36.48012604 21.85691925 -56.44446097 25.03303957 -66 37 Z " fill="#000000" transform="translate(1011,1822)"/>
<path d="M0 0 C1.56796082 1.22219304 3.1315094 2.45010346 4.6875 3.6875 C5.6775 4.3475 6.6675 5.0075 7.6875 5.6875 C6.34701283 8.61981569 4.83931514 10.85507113 2.6875 13.25 C2.07390625 13.93707031 1.4603125 14.62414063 0.828125 15.33203125 C-2.46393911 18.95450326 -5.76400415 22.56956973 -9.078125 26.171875 C-10.94984086 28.27919146 -12.66769662 30.40186413 -14.3125 32.6875 C-17.87863614 32.07012791 -20.01185228 30.60726598 -22.875 28.4375 C-33.20025869 21.02097938 -44.4800228 16.47973744 -57.3125 17.6875 C-61.15433663 18.57836067 -63.68935422 19.96698769 -66.3125 23 C-67.90697035 27.28513907 -66.71500909 30.47997274 -65.3125 34.6875 C-63.02610286 35.84510419 -63.02610286 35.84510419 -60.3125 36.6875 C-59.49241455 36.97334961 -58.6723291 37.25919922 -57.82739258 37.55371094 C-56.96267334 37.84020508 -56.0979541 38.12669922 -55.20703125 38.421875 C-54.23209717 38.74559082 -53.25716309 39.06930664 -52.25268555 39.40283203 C-51.22054932 39.74427246 -50.18841309 40.08571289 -49.125 40.4375 C-48.05870361 40.79312012 -46.99240723 41.14874023 -45.89379883 41.51513672 C-40.97764827 43.15299477 -36.05883217 44.77653963 -31.1171875 46.3359375 C-17.30489115 50.72310416 -3.26118205 56.02615824 4.625 69.0625 C9.73081291 79.29173207 9.90839931 90.86777999 6.6875 101.6875 C1.89672088 114.35123781 -6.98146104 124.00405817 -19.3125 129.6875 C-42.06694376 138.69818587 -68.52976823 138.53584795 -91.21875 129.12890625 C-100.15464104 124.96559338 -108.59656482 120.02557644 -115.3125 112.6875 C-115.6425 111.6975 -115.9725 110.7075 -116.3125 109.6875 C-109.58151317 103.40289624 -102.78791497 97.31250109 -95.58984375 91.5625 C-93.71073047 90.01537414 -91.98955831 88.44703659 -90.3125 86.6875 C-87.1267716 88.16007926 -84.44604409 89.9819232 -81.625 92.0625 C-71.11216423 99.41690761 -58.05931693 104.09368675 -45.0625 102.125 C-42.10372286 101.38752702 -40.27328935 100.66229315 -37.6875 99 C-35.77026726 95.77556312 -35.3125 93.4386051 -35.3125 89.6875 C-38.46626772 84.00894633 -43.20442162 82.95008459 -49.0625 81.1875 C-49.99682861 80.89125732 -50.93115723 80.59501465 -51.89379883 80.28979492 C-54.69506518 79.40529776 -57.50242184 78.54353354 -60.3125 77.6875 C-61.84269241 77.21563588 -63.37266096 76.74304485 -64.90234375 76.26953125 C-65.59320068 76.05586914 -66.28405762 75.84220703 -66.99584961 75.62207031 C-84.75737542 70.10905195 -99.22443254 63.78522593 -108.42578125 46.609375 C-112.61728885 37.47149113 -112.85143619 26.10288595 -109.5625 16.6875 C-107.88262138 12.6698882 -105.98591398 9.14721221 -103.3125 5.6875 C-102.71888672 4.86185547 -102.71888672 4.86185547 -102.11328125 4.01953125 C-79.24159427 -25.66778738 -27.2402926 -19.72326048 0 0 Z " fill="#000000" transform="translate(873.3125,1826.3125)"/>
<path d="M0 0 C16.17 0 32.34 0 49 0 C53.49979736 11.24949339 53.49979736 11.24949339 55.19482422 16.44921875 C55.76594437 18.19283691 55.76594437 18.19283691 56.34860229 19.97167969 C56.74661041 21.19790039 57.14461853 22.42412109 57.5546875 23.6875 C57.98269846 24.99782045 58.4110194 26.30803968 58.83963013 27.61816406 C59.96134794 31.04942214 61.07923371 34.48191584 62.19616699 37.91473389 C63.31492454 41.35137762 64.43675212 44.78701826 65.55859375 48.22265625 C65.77732777 48.89253571 65.99606178 49.56241516 66.2214241 50.25259399 C66.65841908 51.59088557 67.09542687 52.92917296 67.53244781 54.26745605 C68.17420574 56.23320895 68.8155011 58.19911227 69.45672607 60.16503906 C72.59810253 69.79010375 75.77607596 79.40228433 79 89 C82.84671456 79.92260056 85.91338251 70.59075612 89.04296875 61.25 C89.61749341 59.54262727 90.19231223 57.8353535 90.76741028 56.12817383 C92.2703299 51.66480429 93.77012446 47.20039182 95.26898193 42.73565674 C97.67753695 35.56216718 100.08987227 28.38995091 102.50414467 21.21838379 C103.34586994 18.71603609 104.18562556 16.21303355 105.02519226 13.70996094 C105.53780455 12.18552409 106.05048104 10.66110882 106.56323242 9.13671875 C106.79647217 8.43961288 107.02971191 7.74250702 107.27001953 7.02427673 C108.88635136 2.22729728 108.88635136 2.22729728 110 0 C126.17 0 142.34 0 159 0 C157.09506367 5.71480899 155.28140888 10.88663783 152.83984375 16.3125 C152.53825851 16.98649338 152.23667328 17.66048676 151.9259491 18.35490417 C151.27465022 19.80946789 150.62148488 21.26319707 149.96661377 22.71615601 C148.16269475 26.71947396 146.37365369 30.72944913 144.58203125 34.73828125 C144.20628967 35.57796951 143.8305481 36.41765778 143.44342041 37.28279114 C139.29280505 46.56485271 135.20656568 55.87491926 131.125 65.1875 C130.37576668 66.89592974 129.62649896 68.60434439 128.87719727 70.31274414 C127.35981659 73.77278616 125.84284556 77.2330074 124.32617188 80.69335938 C120.73113563 88.89527226 117.13309866 97.095868 113.53411865 105.29605103 C112.41834865 107.83871526 111.30313699 110.38162378 110.18798828 112.92456055 C105.49094692 123.630883 100.75524943 134.31938921 96 145 C84.12 145 72.24 145 60 145 C56.43201265 137.26936074 52.91563742 129.60023189 49.671875 121.7421875 C49.28547852 120.81229004 48.89908203 119.88239258 48.50097656 118.92431641 C47.67609906 116.93842711 46.85235015 114.95206871 46.02966309 112.965271 C44.26917375 108.71384795 42.50292226 104.46482582 40.73712158 100.21560669 C39.82696022 98.02519573 38.91709011 95.83466373 38.00750732 93.64401245 C33.97401446 83.93053491 29.9213961 74.22514165 25.85894775 64.52374268 C24.75532488 61.88771858 23.65274961 59.25125812 22.55029297 56.61474609 C18.83092623 47.72506626 15.08988146 38.84507626 11.3203125 29.9765625 C10.19837371 27.33182554 9.07675809 24.68695173 7.9552002 22.04205322 C6.8982835 19.55479345 5.83549189 17.07010055 4.77246094 14.58544922 C4.13708932 13.08833515 3.50198258 11.59110862 2.8671875 10.09375 C2.57441925 9.41470612 2.281651 8.73566223 1.98001099 8.03604126 C0.77430928 5.17718044 0 3.13846941 0 0 Z " fill="#000000" transform="translate(1188,1814)"/>
<path d="M0 0 C14.52 0 29.04 0 44 0 C44 12.21 44 24.42 44 37 C53.24 37 62.48 37 72 37 C72 49.87 72 62.74 72 76 C62.76 76 53.52 76 44 76 C44 110.98 44 145.96 44 182 C29.48 182 14.96 182 0 182 C0 147.02 0 112.04 0 76 C-8.58 76 -17.16 76 -26 76 C-26 63.13 -26 50.26 -26 37 C-17.42 37 -8.84 37 0 37 C0 24.79 0 12.58 0 0 Z " fill="#000000" transform="translate(1557,1777)"/>
<path d="M0 0 C1.24426758 -0.01836914 1.24426758 -0.01836914 2.51367188 -0.03710938 C7.63429921 -0.04923399 11.83757474 0.5315876 16.6875 2.1875 C16.09652734 8.56250286 15.03097615 14.57688915 13.47265625 20.78125 C13.2568541 21.6539856 13.04105194 22.52672119 12.81871033 23.42590332 C12.36525603 25.25179598 11.90880398 27.07694658 11.44946289 28.90136719 C10.74555802 31.70519351 10.056915 34.51249133 9.36914062 37.3203125 C8.92539212 39.09918632 8.48076269 40.87784068 8.03515625 42.65625 C7.82987808 43.4978064 7.62459991 44.33936279 7.4131012 45.2064209 C6.90027347 47.21706138 6.30188374 49.20553127 5.6875 51.1875 C4.6975 51.6825 4.6975 51.6825 3.6875 52.1875 C2.594375 51.73375 1.50125 51.28 0.375 50.8125 C-7.7071757 47.64416978 -16.82177859 47.09267861 -25.02734375 50.0546875 C-31.80570068 53.41489863 -35.81797503 58.01276084 -38.62109375 64.9765625 C-40.15807832 69.8914397 -40.47525468 74.60860756 -40.51782227 79.73168945 C-40.52772186 80.47369095 -40.53762146 81.21569244 -40.54782104 81.98017883 C-40.57928034 84.42034775 -40.60413154 86.86053609 -40.62890625 89.30078125 C-40.64948924 90.99757885 -40.67048606 92.69437148 -40.69187927 94.39115906 C-40.74696104 98.84791018 -40.79643136 103.3047065 -40.84472656 107.76153564 C-40.90389654 113.11391371 -40.97004777 118.4662095 -41.03502655 123.81851959 C-41.13286115 131.94146264 -41.22183676 140.06445949 -41.3125 148.1875 C-56.1625 148.1875 -71.0125 148.1875 -86.3125 148.1875 C-86.3125 100.3375 -86.3125 52.4875 -86.3125 3.1875 C-72.1225 3.1875 -57.9325 3.1875 -43.3125 3.1875 C-42.8175 10.6125 -42.8175 10.6125 -42.3125 18.1875 C-41.8175 19.6725 -41.8175 19.6725 -41.3125 21.1875 C-40.85101562 20.61902344 -40.38953125 20.05054688 -39.9140625 19.46484375 C-29.19552224 6.7762951 -16.56863077 0.01269627 0 0 Z " fill="#000000" transform="translate(1912.3125,1810.8125)"/>
<path d="M0 0 C0.81597656 -0.00773437 1.63195313 -0.01546875 2.47265625 -0.0234375 C7.52673568 -0.00721253 11.71079873 0.62785118 16.5 2.25 C15.90902734 8.62500286 14.84347615 14.63938915 13.28515625 20.84375 C13.0693541 21.7164856 12.85355194 22.58922119 12.63121033 23.48840332 C12.17775603 25.31429598 11.72130398 27.13944658 11.26196289 28.96386719 C10.55805802 31.76769351 9.869415 34.57499133 9.18164062 37.3828125 C8.73789212 39.16168632 8.29326269 40.94034068 7.84765625 42.71875 C7.64237808 43.5603064 7.43709991 44.40186279 7.2256012 45.2689209 C6.71277347 47.27956138 6.11438374 49.26803127 5.5 51.25 C4.51 51.745 4.51 51.745 3.5 52.25 C2.406875 51.79625 1.31375 51.3425 0.1875 50.875 C-7.8985182 47.70516347 -17.00333068 47.16247737 -25.21484375 50.11328125 C-32.2022576 53.58907173 -36.94447795 58.88663137 -39.5 66.25 C-40.53985819 70.45990145 -40.66996454 74.57317843 -40.70532227 78.88598633 C-40.71522186 79.63774139 -40.72512146 80.38949646 -40.73532104 81.16403198 C-40.76678432 83.63666691 -40.79163314 86.10932101 -40.81640625 88.58203125 C-40.8369889 90.30124904 -40.85798571 92.02046191 -40.87937927 93.7396698 C-40.9344646 98.25560518 -40.98393337 102.77158521 -41.03222656 107.28759766 C-41.09139325 112.71089287 -41.15754646 118.13410683 -41.22252655 123.5573349 C-41.32036564 131.78817347 -41.40933819 140.01906515 -41.5 148.25 C-56.35 148.25 -71.2 148.25 -86.5 148.25 C-86.5 100.4 -86.5 52.55 -86.5 3.25 C-72.31 3.25 -58.12 3.25 -43.5 3.25 C-43.005 12.16 -43.005 12.16 -42.5 21.25 C-40.025 18.775 -40.025 18.775 -37.5 16.25 C-26.93172666 5.72229585 -15.00570285 -0.14223415 0 0 Z " fill="#000000" transform="translate(1152.5,1810.75)"/>
<path d="M0 0 C5.07474646 2.83975449 8.0676666 6.06365675 11.07421875 11.015625 C11.67878906 12.00046875 12.28335937 12.9853125 12.90625 14 C13.35355469 14.74765625 13.80085938 15.4953125 14.26171875 16.265625 C14.6278125 15.7809375 14.99390625 15.29625 15.37109375 14.796875 C21.96262774 6.63592816 31.60096081 -1.16572062 42.26171875 -2.734375 C53.71445285 -3.73435253 65.02174814 -3.61104919 74.63671875 3.515625 C83.56196048 12.86587824 86.44150087 24.22431862 86.37524414 36.92333984 C86.37539017 37.66548737 86.37553619 38.40763489 86.37568665 39.17227173 C86.37499414 41.60706583 86.36723294 44.04178189 86.359375 46.4765625 C86.35750847 48.17192544 86.35608567 49.86728892 86.35508728 51.56265259 C86.35128064 56.01122544 86.34146626 60.45976532 86.3303833 64.9083252 C86.32012926 69.45320184 86.31558112 73.99808385 86.31054688 78.54296875 C86.29984225 87.4505376 86.28226054 96.35807339 86.26171875 105.265625 C79.00171875 105.265625 71.74171875 105.265625 64.26171875 105.265625 C64.23984497 102.11012085 64.23984497 102.11012085 64.2175293 98.89086914 C64.16702676 91.91382864 64.10040472 84.93700765 64.02600384 77.96018314 C63.98141583 73.73315935 63.94213478 69.50622936 63.9152832 65.27905273 C63.88913403 61.1939862 63.84865112 57.10928294 63.79853249 53.02444267 C63.78194184 51.47171002 63.77037924 49.91891464 63.76410484 48.36610603 C64.00551901 34.97169958 64.00551901 34.97169958 58.54296875 23.109375 C57.95515625 22.6659375 57.36734375 22.2225 56.76171875 21.765625 C56.17390625 21.3015625 55.58609375 20.8375 54.98046875 20.359375 C49.74518494 17.02783075 43.18925552 17.59041818 37.26171875 18.265625 C30.69856688 20.40994533 24.94504755 23.36001185 21.12890625 29.26171875 C18.85264664 34.52172407 18.00751371 39.51136972 17.94287109 45.21069336 C17.93282547 45.86520477 17.92277985 46.51971619 17.91242981 47.19406128 C17.88184006 49.33118915 17.8646312 51.46819321 17.84765625 53.60546875 C17.82892502 55.0976313 17.80935018 56.58978348 17.78897095 58.08192444 C17.73784994 61.98953102 17.69811771 65.89717187 17.66082764 69.80493164 C17.62066167 73.80037777 17.56962707 77.79568384 17.51953125 81.79101562 C17.42300939 89.61579617 17.33953531 97.44063198 17.26171875 105.265625 C10.00171875 105.265625 2.74171875 105.265625 -4.73828125 105.265625 C-4.75286377 103.19224854 -4.76744629 101.11887207 -4.7824707 98.98266602 C-4.8329776 92.10540832 -4.89960034 85.22837322 -4.97399616 78.35133457 C-5.01858053 74.18484523 -5.05786233 70.01845097 -5.0847168 65.85180664 C-5.11086966 61.82509207 -5.15135504 57.7987458 -5.20146751 53.77226067 C-5.2180557 52.24185735 -5.22961981 50.71139046 -5.23589516 49.18091011 C-5.27823025 39.79862662 -5.47248809 31.63085663 -10.48828125 23.390625 C-14.93373355 19.19214227 -19.09068911 18.08067128 -25.05078125 17.828125 C-31.81386848 18.06005529 -37.70605218 19.57592551 -42.84765625 24.13671875 C-48.08254251 29.85831964 -49.97253071 34.43370012 -50.05712891 42.2590332 C-50.06717453 42.94251328 -50.07722015 43.62599335 -50.08757019 44.33018494 C-50.1183103 46.57558397 -50.13541139 48.82086426 -50.15234375 51.06640625 C-50.17106282 52.62868769 -50.19063679 54.19095911 -50.21102905 55.7532196 C-50.26227834 59.85484901 -50.30194246 63.95651116 -50.33917236 68.05828857 C-50.3792573 72.24792536 -50.43032912 76.43742674 -50.48046875 80.62695312 C-50.57714277 88.83975793 -50.66055863 97.05261896 -50.73828125 105.265625 C-57.99828125 105.265625 -65.25828125 105.265625 -72.73828125 105.265625 C-72.73828125 69.955625 -72.73828125 34.645625 -72.73828125 -1.734375 C-65.47828125 -1.734375 -58.21828125 -1.734375 -50.73828125 -1.734375 C-50.40828125 2.555625 -50.07828125 6.845625 -49.73828125 11.265625 C-48.66578125 10.234375 -47.59328125 9.203125 -46.48828125 8.140625 C-33.64343723 -3.164676 -15.91261637 -6.4572936 0 0 Z " fill="#000000" transform="translate(1700.73828125,2055.734375)"/>
<path d="M0 0 C5.07474646 2.83975449 8.0676666 6.06365675 11.07421875 11.015625 C11.67878906 12.00046875 12.28335937 12.9853125 12.90625 14 C13.35355469 14.74765625 13.80085938 15.4953125 14.26171875 16.265625 C14.6278125 15.7809375 14.99390625 15.29625 15.37109375 14.796875 C21.96262774 6.63592816 31.60096081 -1.16572062 42.26171875 -2.734375 C53.71445285 -3.73435253 65.02174814 -3.61104919 74.63671875 3.515625 C83.56196048 12.86587824 86.44150087 24.22431862 86.37524414 36.92333984 C86.37539017 37.66548737 86.37553619 38.40763489 86.37568665 39.17227173 C86.37499414 41.60706583 86.36723294 44.04178189 86.359375 46.4765625 C86.35750847 48.17192544 86.35608567 49.86728892 86.35508728 51.56265259 C86.35128064 56.01122544 86.34146626 60.45976532 86.3303833 64.9083252 C86.32012926 69.45320184 86.31558112 73.99808385 86.31054688 78.54296875 C86.29984225 87.4505376 86.28226054 96.35807339 86.26171875 105.265625 C79.00171875 105.265625 71.74171875 105.265625 64.26171875 105.265625 C64.23984497 102.11012085 64.23984497 102.11012085 64.2175293 98.89086914 C64.16702676 91.91382864 64.10040472 84.93700765 64.02600384 77.96018314 C63.98141583 73.73315935 63.94213478 69.50622936 63.9152832 65.27905273 C63.88913403 61.1939862 63.84865112 57.10928294 63.79853249 53.02444267 C63.78194184 51.47171002 63.77037924 49.91891464 63.76410484 48.36610603 C64.00551901 34.97169958 64.00551901 34.97169958 58.54296875 23.109375 C57.95515625 22.6659375 57.36734375 22.2225 56.76171875 21.765625 C56.17390625 21.3015625 55.58609375 20.8375 54.98046875 20.359375 C49.74518494 17.02783075 43.18925552 17.59041818 37.26171875 18.265625 C30.69856688 20.40994533 24.94504755 23.36001185 21.12890625 29.26171875 C18.85264664 34.52172407 18.00751371 39.51136972 17.94287109 45.21069336 C17.93282547 45.86520477 17.92277985 46.51971619 17.91242981 47.19406128 C17.88184006 49.33118915 17.8646312 51.46819321 17.84765625 53.60546875 C17.82892502 55.0976313 17.80935018 56.58978348 17.78897095 58.08192444 C17.73784994 61.98953102 17.69811771 65.89717187 17.66082764 69.80493164 C17.62066167 73.80037777 17.56962707 77.79568384 17.51953125 81.79101562 C17.42300939 89.61579617 17.33953531 97.44063198 17.26171875 105.265625 C10.00171875 105.265625 2.74171875 105.265625 -4.73828125 105.265625 C-4.75286377 103.19224854 -4.76744629 101.11887207 -4.7824707 98.98266602 C-4.8329776 92.10540832 -4.89960034 85.22837322 -4.97399616 78.35133457 C-5.01858053 74.18484523 -5.05786233 70.01845097 -5.0847168 65.85180664 C-5.11086966 61.82509207 -5.15135504 57.7987458 -5.20146751 53.77226067 C-5.2180557 52.24185735 -5.22961981 50.71139046 -5.23589516 49.18091011 C-5.27823025 39.79862662 -5.47248809 31.63085663 -10.48828125 23.390625 C-14.93373355 19.19214227 -19.09068911 18.08067128 -25.05078125 17.828125 C-31.81386848 18.06005529 -37.70605218 19.57592551 -42.84765625 24.13671875 C-48.08254251 29.85831964 -49.97253071 34.43370012 -50.05712891 42.2590332 C-50.06717453 42.94251328 -50.07722015 43.62599335 -50.08757019 44.33018494 C-50.1183103 46.57558397 -50.13541139 48.82086426 -50.15234375 51.06640625 C-50.17106282 52.62868769 -50.19063679 54.19095911 -50.21102905 55.7532196 C-50.26227834 59.85484901 -50.30194246 63.95651116 -50.33917236 68.05828857 C-50.3792573 72.24792536 -50.43032912 76.43742674 -50.48046875 80.62695312 C-50.57714277 88.83975793 -50.66055863 97.05261896 -50.73828125 105.265625 C-57.99828125 105.265625 -65.25828125 105.265625 -72.73828125 105.265625 C-72.73828125 69.955625 -72.73828125 34.645625 -72.73828125 -1.734375 C-65.47828125 -1.734375 -58.21828125 -1.734375 -50.73828125 -1.734375 C-50.40828125 2.555625 -50.07828125 6.845625 -49.73828125 11.265625 C-48.66578125 10.234375 -47.59328125 9.203125 -46.48828125 8.140625 C-33.64343723 -3.164676 -15.91261637 -6.4572936 0 0 Z " fill="#000000" transform="translate(1395.73828125,2055.734375)"/>
<path d="M0 0 C3.35802234 3.03873497 6.04634566 6.28113426 8.3828125 10.15625 C8.78371094 10.79046875 9.18460938 11.4246875 9.59765625 12.078125 C10.70293586 15.00354168 10.58803059 16.2521636 9.3828125 19.15625 C7.07408337 20.99214206 4.95454876 22.47415041 2.4453125 23.96875 C1.79884766 24.37544922 1.15238281 24.78214844 0.48632812 25.20117188 C-4.29642857 28.15625 -4.29642857 28.15625 -6.6171875 28.15625 C-6.85953125 27.63675781 -7.101875 27.11726563 -7.3515625 26.58203125 C-10.46669266 20.10016426 -13.40021108 14.99196989 -20.13671875 11.8828125 C-26.37308492 10.05609737 -33.05472571 10.30209607 -39.1796875 12.34375 C-42.89320729 15.10508523 -45.150336 17.7556955 -46.6171875 22.15625 C-47.87627145 34.4952727 -39.55316567 44.7404872 -32.24023438 53.87646484 C-25.66972356 61.87721408 -18.63184101 69.45647413 -11.546875 77 C-8.5470842 80.20541387 -5.68332887 83.51418525 -2.88671875 86.8984375 C-1.6782484 88.39085684 -1.6782484 88.39085684 0.3828125 88.15625 C1.19852468 85.59473317 2.01047381 83.03212372 2.8203125 80.46875 C3.05041016 79.74751953 3.28050781 79.02628906 3.51757812 78.28320312 C3.73994141 77.57744141 3.96230469 76.87167969 4.19140625 76.14453125 C4.49776001 75.17833862 4.49776001 75.17833862 4.81030273 74.19262695 C5.46075719 71.87900621 5.91148328 69.51289608 6.3828125 67.15625 C12.9828125 67.15625 19.5828125 67.15625 26.3828125 67.15625 C25.72920191 81.09994257 20.54238691 93.79476734 14.3828125 106.15625 C14.82036865 106.6188623 15.2579248 107.08147461 15.70874023 107.55810547 C39.3828125 132.60427208 39.3828125 132.60427208 39.3828125 134.15625 C12.12828575 136.06880144 12.12828575 136.06880144 6.0078125 131.70703125 C3.30088859 129.19195287 1.22982605 126.36120872 -0.6171875 123.15625 C-1.24882813 123.60355469 -1.88046875 124.05085938 -2.53125 124.51171875 C-18.07027216 135.0128735 -36.02400973 139.14676111 -54.6171875 136.15625 C-69.54652089 132.50525079 -81.78774945 124.58919561 -90.36328125 111.6875 C-93.75595054 104.83874704 -95.15497308 98.46545372 -95.0546875 90.84375 C-95.04566406 90.01488281 -95.03664063 89.18601562 -95.02734375 88.33203125 C-94.69006902 76.30256599 -90.65842921 67.1354067 -82.6171875 58.15625 C-77.43872786 53.33436661 -71.8816418 49.42466094 -65.6171875 46.15625 C-65.96652344 45.40601562 -66.31585937 44.65578125 -66.67578125 43.8828125 C-71.21218017 33.67912768 -73.09792261 24.99674839 -69.6171875 14.15625 C-64.80092205 2.72464719 -56.90283235 -3.18972254 -45.6171875 -7.84375 C-30.12230326 -13.47580357 -12.74058888 -9.95474583 0 0 Z M-64.3046875 68.78125 C-69.77142617 74.39573836 -71.94486519 80.35791055 -72.2421875 88.15625 C-71.88552759 96.80055991 -69.19214667 102.99713336 -62.9921875 109.03125 C-53.46118626 116.51105246 -42.3177397 117.54869339 -30.6171875 116.15625 C-24.23159432 114.68553759 -18.82612723 112.09815034 -13.6171875 108.15625 C-19.680461 101.05778347 -25.79573243 94.02697784 -32.1171875 87.15625 C-38.70399206 79.98976213 -45.02658373 72.73957221 -51.015625 65.0625 C-51.54414062 64.4334375 -52.07265625 63.804375 -52.6171875 63.15625 C-56.3922353 63.15625 -61.17626953 66.88964844 -64.3046875 68.78125 Z " fill="#000000" transform="translate(1207.6171875,2026.84375)"/>
<path d="M0 0 C6.93 0 13.86 0 21 0 C21 49.5 21 99 21 150 C14.07 150 7.14 150 0 150 C-0.33 146.37 -0.66 142.74 -1 139 C-1.57105469 139.51949219 -2.14210938 140.03898437 -2.73046875 140.57421875 C-12.43200221 148.91846295 -23.11248626 153.2981687 -36 153 C-52.62205652 151.69708346 -64.02802901 145.30614155 -74.921875 132.8125 C-85.69606457 118.23089005 -86.99632347 100.16438024 -84.6953125 82.68554688 C-82.25270535 69.83693475 -74.75004205 57.90424801 -64.359375 49.98828125 C-52.61679673 42.16536249 -39.93920604 39.24585964 -25.90625 41.49609375 C-16.00197246 43.75518798 -8.80329589 47.49725342 -1 54 C-0.67 36.18 -0.34 18.36 0 0 Z M-56 72 C-63.07229655 83.04938263 -64.80521994 95.61718019 -62.34765625 108.390625 C-59.35946895 118.39399881 -53.97717384 125.82788845 -44.73046875 130.8359375 C-35.62258264 134.71884174 -27.17215297 134.67665622 -18 131 C-9.43088622 126.34036406 -3.7328041 118.48383758 -0.6953125 109.3203125 C1.95913043 96.64460187 0.36771158 85.11146436 -5.75 73.75 C-12.18135257 65.88945796 -19.16239826 61.28203603 -29.31640625 59.62109375 C-39.88739124 59.03486739 -49.27066494 64.10623271 -56 72 Z " fill="#000000" transform="translate(1011,2011)"/>
<path d="M0 0 C6.93 0 13.86 0 21 0 C21 49.5 21 99 21 150 C14.07 150 7.14 150 0 150 C-0.33 146.37 -0.66 142.74 -1 139 C-1.57105469 139.51949219 -2.14210938 140.03898437 -2.73046875 140.57421875 C-12.43200221 148.91846295 -23.11248626 153.2981687 -36 153 C-52.62205652 151.69708346 -64.02802901 145.30614155 -74.921875 132.8125 C-85.69606457 118.23089005 -86.99632347 100.16438024 -84.6953125 82.68554688 C-82.25270535 69.83693475 -74.75004205 57.90424801 -64.359375 49.98828125 C-52.61679673 42.16536249 -39.93920604 39.24585964 -25.90625 41.49609375 C-16.00197246 43.75518798 -8.80329589 47.49725342 -1 54 C-0.67 36.18 -0.34 18.36 0 0 Z M-56 72 C-63.07229655 83.04938263 -64.80521994 95.61718019 -62.34765625 108.390625 C-59.35946895 118.39399881 -53.97717384 125.82788845 -44.73046875 130.8359375 C-35.62258264 134.71884174 -27.17215297 134.67665622 -18 131 C-9.43088622 126.34036406 -3.7328041 118.48383758 -0.6953125 109.3203125 C1.95913043 96.64460187 0.36771158 85.11146436 -5.75 73.75 C-12.18135257 65.88945796 -19.16239826 61.28203603 -29.31640625 59.62109375 C-39.88739124 59.03486739 -49.27066494 64.10623271 -56 72 Z " fill="#000000" transform="translate(755,2011)"/>
<path d="M0 0 C2.1639425 1.90859728 4.0597549 3.85551857 6 6 C6.495 -0.435 6.495 -0.435 7 -7 C14.26 -7 21.52 -7 29 -7 C29 28.31 29 63.62 29 100 C21.74 100 14.48 100 7 100 C6.67 95.71 6.34 91.42 6 87 C4.72125 88.216875 3.4425 89.43375 2.125 90.6875 C-2.54713942 94.84460043 -7.26767205 97.56450315 -13 100 C-13.94875 100.4125 -14.8975 100.825 -15.875 101.25 C-29.37102131 104.48904511 -41.65706586 102.75369887 -53.73828125 96.03125 C-65.33480667 88.80946171 -72.99350875 76.46111661 -76.52734375 63.37890625 C-79.97124494 46.04555231 -78.64970299 28.14583817 -69 13 C-60.71619621 2.16969357 -50.58740798 -5.81943281 -36.984375 -8.62109375 C-23.45441852 -10.33890236 -11.08976212 -8.1993454 0 0 Z M-46 20 C-53.52403182 28.87112922 -56.19640206 38.46465227 -56 50 C-54.62775801 61.63075005 -50.15007393 70.18363371 -41.046875 77.55859375 C-33.69292686 82.7372328 -25.80575718 82.88967466 -17 82 C-7.77966916 79.691482 -0.82343328 73.05413966 3.9921875 65.08984375 C8.70855436 55.30978068 9.12829357 44.15132964 6.0703125 33.8203125 C2.28209928 23.83823242 -3.07067057 18.24435007 -12.3125 13.1875 C-24.69663333 9.19938927 -36.15744417 11.32648337 -46 20 Z " fill="#000000" transform="translate(2147,2061)"/>
<path d="M0 0 C2.1639425 1.90859728 4.0597549 3.85551857 6 6 C6.495 -0.435 6.495 -0.435 7 -7 C14.26 -7 21.52 -7 29 -7 C29 28.31 29 63.62 29 100 C21.74 100 14.48 100 7 100 C6.67 95.71 6.34 91.42 6 87 C4.72125 88.216875 3.4425 89.43375 2.125 90.6875 C-2.54713942 94.84460043 -7.26767205 97.56450315 -13 100 C-13.94875 100.4125 -14.8975 100.825 -15.875 101.25 C-29.37102131 104.48904511 -41.65706586 102.75369887 -53.73828125 96.03125 C-65.33480667 88.80946171 -72.99350875 76.46111661 -76.52734375 63.37890625 C-79.97124494 46.04555231 -78.64970299 28.14583817 -69 13 C-60.71619621 2.16969357 -50.58740798 -5.81943281 -36.984375 -8.62109375 C-23.45441852 -10.33890236 -11.08976212 -8.1993454 0 0 Z M-46 20 C-53.52403182 28.87112922 -56.19640206 38.46465227 -56 50 C-54.62775801 61.63075005 -50.15007393 70.18363371 -41.046875 77.55859375 C-33.69292686 82.7372328 -25.80575718 82.88967466 -17 82 C-7.77966916 79.691482 -0.82343328 73.05413966 3.9921875 65.08984375 C8.70855436 55.30978068 9.12829357 44.15132964 6.0703125 33.8203125 C2.28209928 23.83823242 -3.07067057 18.24435007 -12.3125 13.1875 C-24.69663333 9.19938927 -36.15744417 11.32648337 -46 20 Z " fill="#000000" transform="translate(875,2061)"/>
<path d="M0 0 C14.85 0 29.7 0 45 0 C45 47.85 45 95.7 45 145 C30.15 145 15.3 145 0 145 C0 97.15 0 49.3 0 0 Z " fill="#000000" transform="translate(1953,1814)"/>
<path d="M0 0 C10.85724788 9.2133688 15.67676724 20.06060342 18 34 C18 39.61 18 45.22 18 51 C-8.73 51 -35.46 51 -63 51 C-58.26560081 66.85296843 -58.26560081 66.85296843 -46.3125 76.4375 C-35.57616797 81.22550397 -25.40645773 82.01203821 -14 79 C-7.87362204 76.37769554 -2.51554839 72.70375488 3 69 C4.70347226 71.23936248 6.38737537 73.48959087 8.0625 75.75 C8.54783203 76.38421875 9.03316406 77.0184375 9.53320312 77.671875 C9.98759766 78.290625 10.44199219 78.909375 10.91015625 79.546875 C11.33433838 80.11245117 11.75852051 80.67802734 12.19555664 81.26074219 C13 83 13 83 12.74707031 85.10668945 C10.72579383 90.2292382 3.63154938 93.20198225 -1.05078125 95.4921875 C-17.93903271 102.74533743 -35.2874069 104.02350316 -52.875 97.8125 C-58.70499859 95.38452762 -63.33839786 92.22979058 -68 88 C-68.886875 87.195625 -69.77375 86.39125 -70.6875 85.5625 C-83.71476678 71.12688005 -85.79243762 56.58312037 -85.18359375 37.74853516 C-84.80626688 32.09967098 -83.27219826 27.18718945 -81 22 C-80.649375 21.12601563 -80.29875 20.25203125 -79.9375 19.3515625 C-74.6164032 7.34214263 -64.97981894 -1.07805511 -53.06640625 -6.28125 C-35.13946904 -13.09202669 -15.59896865 -11.59238424 0 0 Z M-56.3125 20.4375 C-59.77234506 24.77409054 -62 28.33689741 -62 34 C-42.86 34 -23.72 34 -4 34 C-6.08728398 24.6072221 -7.96378808 19.42016403 -15.9375 14.125 C-29.37016499 6.56912594 -45.97585911 8.92971261 -56.3125 20.4375 Z " fill="#000000" transform="translate(1588,2062)"/>
<path d="M0 0 C10.85724788 9.2133688 15.67676724 20.06060342 18 34 C18 39.61 18 45.22 18 51 C-8.73 51 -35.46 51 -63 51 C-58.26560081 66.85296843 -58.26560081 66.85296843 -46.3125 76.4375 C-35.57616797 81.22550397 -25.40645773 82.01203821 -14 79 C-7.87362204 76.37769554 -2.51554839 72.70375488 3 69 C4.70347226 71.23936248 6.38737537 73.48959087 8.0625 75.75 C8.54783203 76.38421875 9.03316406 77.0184375 9.53320312 77.671875 C9.98759766 78.290625 10.44199219 78.909375 10.91015625 79.546875 C11.33433838 80.11245117 11.75852051 80.67802734 12.19555664 81.26074219 C13 83 13 83 12.74707031 85.10668945 C10.72579383 90.2292382 3.63154938 93.20198225 -1.05078125 95.4921875 C-17.93903271 102.74533743 -35.2874069 104.02350316 -52.875 97.8125 C-58.70499859 95.38452762 -63.33839786 92.22979058 -68 88 C-68.886875 87.195625 -69.77375 86.39125 -70.6875 85.5625 C-83.71476678 71.12688005 -85.79243762 56.58312037 -85.18359375 37.74853516 C-84.80626688 32.09967098 -83.27219826 27.18718945 -81 22 C-80.649375 21.12601563 -80.29875 20.25203125 -79.9375 19.3515625 C-74.6164032 7.34214263 -64.97981894 -1.07805511 -53.06640625 -6.28125 C-35.13946904 -13.09202669 -15.59896865 -11.59238424 0 0 Z M-56.3125 20.4375 C-59.77234506 24.77409054 -62 28.33689741 -62 34 C-42.86 34 -23.72 34 -4 34 C-6.08728398 24.6072221 -7.96378808 19.42016403 -15.9375 14.125 C-29.37016499 6.56912594 -45.97585911 8.92971261 -56.3125 20.4375 Z " fill="#000000" transform="translate(560,2062)"/>
<path d="M0 0 C0.75796875 0.57363281 1.5159375 1.14726562 2.296875 1.73828125 C3.13734375 2.36347656 3.9778125 2.98867187 4.84375 3.6328125 C15.72002223 12.51510149 21.22269135 24.55592513 23.984375 38.11328125 C25.49039002 55.58305549 22.28453368 72.31104755 10.984375 86.17578125 C0.41615425 97.16673083 -13.54270524 103.12200402 -28.703125 103.73828125 C-43.72516374 103.44267763 -56.31223195 99.91971654 -67.703125 89.73828125 C-68.32960938 89.19300781 -68.95609375 88.64773437 -69.6015625 88.0859375 C-79.58112171 78.8254295 -84.36351439 66.61884619 -85.0859375 53.18359375 C-85.62979356 35.16245025 -82.36580231 20.32561661 -69.80078125 6.68359375 C-51.50232696 -10.28592252 -21.18689575 -14.32603857 0 0 Z M-55.953125 24.42578125 C-62.65188568 34.14447503 -63.83850833 44.24542147 -62.703125 55.73828125 C-60.64877805 65.15596165 -56.08867108 72.6341465 -48.140625 78.11328125 C-40.6903262 82.86766088 -33.37540513 84.56928918 -24.640625 83.05078125 C-16.35611892 81.1014857 -9.97546755 77.52433772 -4.703125 70.73828125 C1.6323462 60.11367968 2.49824144 49.92211808 1.296875 37.73828125 C-1.09063552 28.3368394 -5.38914725 21.6667876 -13.578125 16.48828125 C-28.64533474 7.98654695 -44.95625634 11.00960148 -55.953125 24.42578125 Z " fill="#000000" transform="translate(1892.703125,2060.26171875)"/>
<path d="M0 0 C7.59 0 15.18 0 23 0 C27.50008802 9.00017605 27.50008802 9.00017605 29.41015625 13.70654297 C29.8373999 14.75478241 30.26464355 15.80302185 30.70483398 16.88302612 C31.15286377 17.99154938 31.60089355 19.10007263 32.0625 20.2421875 C32.77224976 21.98751266 32.77224976 21.98751266 33.49633789 23.76809692 C34.74648915 26.84406594 35.99384978 29.92113595 37.23986816 32.9987793 C38.498589 36.1056589 39.76126137 39.21092877 41.0234375 42.31640625 C42.88061224 46.88846996 44.73681179 51.46092349 46.58984375 56.03466797 C46.9957373 57.03592712 47.40163086 58.03718628 47.81982422 59.06878662 C49.30408102 62.7552488 50.75921718 66.45298597 52.20532227 70.15457153 C52.85642877 71.97969033 52.85642877 71.97969033 54 73 C64.44993177 48.71526725 74.76775114 24.37722363 85 0 C92.59 0 100.18 0 108 0 C106.06620662 5.80138014 104.14183528 11.23562339 101.62109375 16.75 C101.29681396 17.46951843 100.97253418 18.18903687 100.63842773 18.93035889 C99.9395574 20.48023432 99.23881091 22.0292649 98.53634644 23.57751465 C96.62928859 27.78175971 94.73712518 31.99270459 92.84375 36.203125 C92.44876816 37.08067444 92.05378632 37.95822388 91.64683533 38.86236572 C86.43276969 50.46192658 81.34161682 62.1154582 76.24194336 73.765625 C74.1642905 78.51173388 72.08366805 83.25652889 70 88 C69.62820618 88.84699463 69.25641235 89.69398926 68.87335205 90.56665039 C67.76327207 93.09248712 66.64974484 95.61677507 65.53515625 98.140625 C65.19447617 98.91662048 64.85379608 99.69261597 64.50279236 100.49212646 C62.11478402 105.88521598 62.11478402 105.88521598 61 107 C58.13732433 107.07325168 55.299281 107.09238205 52.4375 107.0625 C51.63119141 107.05798828 50.82488281 107.05347656 49.99414062 107.04882812 C47.99606244 107.03700518 45.99802217 107.01906914 44 107 C43.61481201 106.08452393 43.22962402 105.16904785 42.83276367 104.22583008 C34.99010304 85.58753771 27.14121548 66.9518672 19.27944946 48.32162476 C18.48202445 46.43175727 17.68479634 44.54180668 16.88778687 42.65176392 C15.75000454 39.95378925 14.61137596 37.25617289 13.47265625 34.55859375 C13.10861191 33.69472549 12.74456757 32.83085724 12.36949158 31.94081116 C10.41635505 27.3151207 8.43976105 22.70089367 6.43310547 18.09814453 C6.01483994 17.13513931 5.5965744 16.17213409 5.16563416 15.1799469 C4.36135302 13.33101572 3.55260028 11.48402142 2.73878479 9.63926697 C2.37953415 8.81221756 2.02028351 7.98516815 1.65014648 7.13305664 C1.33077621 6.40542618 1.01140594 5.67779572 0.68235779 4.92811584 C0 3 0 3 0 0 Z " fill="#000000" transform="translate(358,2054)"/>
<path d="M0 0 C-1.37530517 8.07385038 -3.10031645 16.03399365 -5 24 C-5.89460938 23.82082031 -6.78921875 23.64164063 -7.7109375 23.45703125 C-17.75020964 21.6910612 -24.7330254 21.90535026 -33.3125 27.625 C-38.44826239 31.78351206 -41.69451555 37.54182554 -43 44 C-43.11439672 46.07707988 -43.17620193 48.15728078 -43.20532227 50.23730469 C-43.22526749 51.49830994 -43.24521271 52.75931519 -43.26576233 54.05853271 C-43.28274401 55.42964557 -43.29962291 56.8007597 -43.31640625 58.171875 C-43.33698835 59.57863967 -43.35798515 60.98539833 -43.37937927 62.39215088 C-43.43447035 66.08773927 -43.48393655 69.78338226 -43.53222656 73.47906494 C-43.58253649 77.25301959 -43.63817293 81.02689532 -43.69335938 84.80078125 C-43.80078231 92.20045575 -43.90176973 99.60019671 -44 107 C-51.26 107 -58.52 107 -66 107 C-66 71.69 -66 36.38 -66 0 C-58.74 0 -51.48 0 -44 0 C-43.505 7.92 -43.505 7.92 -43 16 C-42.01 14.80375 -41.02 13.6075 -40 12.375 C-29.39042299 0.36495882 -15.63354543 -5.43775493 0 0 Z " fill="#000000" transform="translate(2004,2054)"/>
<path d="M0 0 C-1.37530517 8.07385038 -3.10031645 16.03399365 -5 24 C-5.89460937 23.82082031 -6.78921875 23.64164063 -7.7109375 23.45703125 C-17.75020964 21.6910612 -24.7330254 21.90535026 -33.3125 27.625 C-38.44826239 31.78351206 -41.69451555 37.54182554 -43 44 C-43.11439672 46.07707988 -43.17620193 48.15728078 -43.20532227 50.23730469 C-43.22526749 51.49830994 -43.24521271 52.75931519 -43.26576233 54.05853271 C-43.28274401 55.42964557 -43.29962291 56.8007597 -43.31640625 58.171875 C-43.33698835 59.57863967 -43.35798515 60.98539833 -43.37937927 62.39215088 C-43.43447035 66.08773927 -43.48393655 69.78338226 -43.53222656 73.47906494 C-43.58253649 77.25301959 -43.63817293 81.02689532 -43.69335938 84.80078125 C-43.80078231 92.20045575 -43.90176973 99.60019671 -44 107 C-51.26 107 -58.52 107 -66 107 C-66 71.69 -66 36.38 -66 0 C-58.74 0 -51.48 0 -44 0 C-43.505 7.92 -43.505 7.92 -43 16 C-42.01 14.80375 -41.02 13.6075 -40 12.375 C-29.39042299 0.36495882 -15.63354543 -5.43775493 0 0 Z " fill="#000000" transform="translate(665,2054)"/>
<path d="M0 0 C7.26 0 14.52 0 22 0 C22 35.31 22 70.62 22 107 C14.74 107 7.48 107 0 107 C0 71.69 0 36.38 0 0 Z " fill="#000000" transform="translate(2022,2054)"/>
<path d="M0 0 C5.19957115 4.06717816 7.59755817 8.08133957 8.77734375 14.55859375 C9.55146222 21.78369945 7.60086492 28.53558975 3.27734375 34.37109375 C-2.45875398 40.41649087 -10.18336465 41.78532836 -18.22265625 42.05859375 C-25.46938265 41.81226862 -32.52649386 40.76391767 -38.1640625 35.875 C-39.69400472 34.16072739 -40.99955403 32.50191992 -42.22265625 30.55859375 C-42.59648438 29.97851562 -42.9703125 29.3984375 -43.35546875 28.80078125 C-44.60731116 25.56403557 -44.52480104 22.64223253 -44.53515625 19.18359375 C-44.55191406 17.89710937 -44.56867188 16.610625 -44.5859375 15.28515625 C-43.95060831 8.76790841 -41.09975951 4.77063747 -36.22265625 0.55859375 C-25.76265461 -6.59067342 -10.70326638 -6.94113409 0 0 Z " fill="#000000" transform="translate(1993.22265625,1744.44140625)"/>
<path d="M0 0 C1.01964844 -0.01675781 2.03929687 -0.03351563 3.08984375 -0.05078125 C7.23360493 0.45561795 9.8413782 2.13498969 12.8125 5 C15.00279379 9.05204351 15.45724719 12.99441015 14.6953125 17.46875 C13.49226087 21.44921712 12.28819979 23.12825527 9 25.8125 C3.35396621 28.5039356 -2.5852556 28.12509352 -8.375 26.125 C-11.45393658 23.94721559 -12.60472253 22.86657325 -13.9375 19.3125 C-14.60527998 13.91255079 -14.60978251 9.68107511 -12.1875 4.75 C-8.42246091 0.67120765 -5.49618741 0.02079264 0 0 Z " fill="#000000" transform="translate(2032.9375,2004.6875)"/>
</svg>
