<?xml version="1.0" encoding="UTF-8"?>
<svg version="1.1" xmlns="http://www.w3.org/2000/svg" width="1989" height="1242">
<path d="M0 0 C9.96330852 -0.0278862 19.92660732 -0.04879896 29.88994735 -0.06152695 C34.51955666 -0.06764499 39.14913869 -0.07590067 43.7787323 -0.08958435 C72.62581589 -0.17252758 101.2475228 0.43718252 130 3 C130.96719971 3.08485657 131.93439941 3.16971313 132.9309082 3.25714111 C205.55848442 9.67817262 277.75522202 23.2356628 346.98406982 46.3293457 C348.99694183 46.99898262 351.01201311 47.66155793 353.02783203 48.32226562 C440.1613927 76.93595659 522.46162277 120.27681348 609 185 C610.17444644 185.91540657 611.34892665 186.83076982 612.5234375 187.74609375 C626.97187997 199.02971395 641.1745795 210.63111878 654.74609375 222.9609375 C656.7688269 224.79086247 658.81369435 226.58881728 660.875 228.375 C665.77970732 232.65315788 670.56648522 237.05894948 675.34619141 241.47558594 C676.97978799 242.98136939 678.62043573 244.47916611 680.26171875 245.9765625 C688.54206937 253.57465472 696.54558468 261.43885369 704.5 269.375 C705.01864624 269.89105804 705.53729248 270.40711609 706.07165527 270.93881226 C711.40166355 276.24781048 716.66684912 281.5698903 721.53125 287.31689453 C723.11304996 289.12954894 724.78261444 290.81595443 726.5 292.5 C729.51413582 295.46735323 732.29917333 298.57345292 735.05859375 301.77734375 C737.28804061 304.32976883 739.58001382 306.81887514 741.875 309.3125 C745.92521292 313.75250784 749.75534122 318.31934281 753.52734375 322.99609375 C756.40883633 326.49667478 759.38744562 329.90257325 762.375 333.3125 C767.98644643 339.74238376 773.31759539 346.34182856 778.52832031 353.09863281 C780.1110899 355.14352491 781.70679524 357.1778432 783.3046875 359.2109375 C791.16443117 369.2284095 798.80900229 379.38681481 806.30615234 389.67822266 C807.93341162 391.90872651 809.56943476 394.13254863 811.20703125 396.35546875 C819.5742783 407.76664034 827.42410764 419.49971886 835.21826172 431.30761719 C837.15229124 434.23012712 839.10529509 437.13930197 841.06274414 440.04614258 C864.06740611 474.27166784 884.57734851 510.19669826 905 546 C910.16045868 537.85537831 915.01378752 529.54930557 919.8125 521.1875 C932.81268391 498.58042292 945.99542513 476.17110477 960.40869141 454.42919922 C962.7551283 450.84726503 965.00511031 447.20859259 967.25 443.5625 C971.76126137 436.27146078 976.56367479 429.20664591 981.47558594 422.18066406 C983.10498399 419.84982111 984.72835463 417.51484491 986.3515625 415.1796875 C996.81250398 400.15596386 1007.35394787 385.19318649 1018.62646484 370.76367188 C1020.17107303 368.78033566 1021.70489068 366.78889566 1023.23828125 364.796875 C1034.5915183 350.07716887 1046.38949914 335.76317323 1058.54101562 321.69726562 C1060.01035548 319.98795326 1061.46763872 318.26904801 1062.921875 316.546875 C1069.72957041 308.50203249 1076.80686208 300.75857706 1084.04418945 293.09936523 C1085.45720251 291.58263832 1086.85493847 290.05162971 1088.24291992 288.51196289 C1096.14265242 279.76343015 1104.42633334 271.42120786 1112.77124023 263.09838867 C1115.1969663 260.67805474 1117.61725798 258.2523778 1120.03710938 255.82617188 C1121.60124175 254.26269988 1123.16568406 252.69953788 1124.73046875 251.13671875 C1125.44212692 250.42303635 1126.1537851 249.70935394 1126.88700867 248.9740448 C1130.86773127 245.01164994 1134.9413992 241.21793477 1139.203125 237.5587616 C1142.15286818 234.99990448 1144.97237459 232.30403878 1147.8125 229.625 C1152.75748862 224.99727689 1157.81227238 220.60172182 1163.1015625 216.3671875 C1166.57532628 213.53012436 1169.94012606 210.58108982 1173.3125 207.625 C1179.73515975 202.01954878 1186.32717477 196.69407578 1193.07666016 191.48925781 C1195.18800507 189.85442613 1197.28786031 188.205516 1199.38671875 186.5546875 C1207.80256521 179.94665632 1216.28542445 173.49066784 1225.05664062 167.36181641 C1227.24716684 165.82679691 1229.42823406 164.278793 1231.609375 162.73046875 C1243.21561722 154.51592137 1254.9976966 146.62362051 1267 139 C1267.81484863 138.48115234 1268.62969727 137.96230469 1269.46923828 137.42773438 C1293.90349899 121.92648109 1319.13880233 107.95303971 1345 95 C1345.61897156 94.68933594 1346.23794312 94.37867188 1346.87567139 94.05859375 C1378.40945623 78.24934053 1410.7496093 64.76407826 1444 53 C1444.71976013 52.7451886 1445.43952026 52.4903772 1446.18109131 52.22784424 C1519.22853539 26.45134416 1595.36394609 10.88721273 1672.4375 3.75 C1673.25790771 3.6727771 1674.07831543 3.5955542 1674.92358398 3.51599121 C1706.80002388 0.56327707 1738.63017135 -0.30064214 1770.62554932 -0.1373291 C1775.20672632 -0.11630832 1779.7879286 -0.10761947 1784.36914062 -0.09765625 C1793.24615845 -0.0766514 1802.12306074 -0.0428488 1811 0 C1811.03431059 64.66344957 1811.06610517 129.32690022 1811.08468628 193.99035645 C1811.08496239 194.94878936 1811.08523851 195.90722228 1811.08552299 196.89469861 C1811.09151008 217.72859898 1811.09705026 238.56249945 1811.10213066 259.39640006 C1811.10462513 269.61468991 1811.10721827 279.83297973 1811.10986328 290.05126953 C1811.11025556 291.57645944 1811.11025556 291.57645944 1811.11065576 293.13246126 C1811.11916457 326.03552783 1811.13417677 358.9385875 1811.15259444 391.8416499 C1811.17150082 425.67959177 1811.18378042 459.51752982 1811.18782998 493.35547688 C1811.18840621 498.14485712 1811.18905748 502.93423734 1811.18975449 507.72361755 C1811.18988933 508.6661518 1811.19002418 509.60868604 1811.19016311 510.57978192 C1811.19251816 525.69627373 1811.2017715 540.81275367 1811.21366407 555.92924066 C1811.22549726 571.16013729 1811.22992137 586.39102227 1811.22700275 601.62192333 C1811.22549213 610.6489893 1811.2294417 619.67601229 1811.24159509 628.70307043 C1811.24918703 634.76110044 1811.24926386 640.81910285 1811.24366363 646.87713489 C1811.24069162 650.311002 1811.24173098 653.74472473 1811.24976636 657.17859274 C1811.28122443 671.47055249 1810.97968367 685.69239923 1810.09043694 699.95484161 C1810.01027803 701.24480922 1809.93011912 702.53477682 1809.84753115 703.86383435 C1803.79239122 793.77534632 1764.57108956 879.37005707 1707 948 C1705.49894691 949.85331423 1703.998966 951.70749732 1702.5 953.5625 C1698.82671833 958.05491069 1695.01221173 962.38966681 1691.10546875 966.6796875 C1689.27082315 968.70154184 1687.47231214 970.74678522 1685.6875 972.8125 C1675.76190394 984.16264434 1665.25374383 994.90590586 1654.58056641 1005.54980469 C1652.23613323 1007.88883481 1649.89715129 1010.23322197 1647.55859375 1012.578125 C1646.04459166 1014.09146687 1644.5302797 1015.60449881 1643.015625 1017.1171875 C1642.32897766 1017.80585907 1641.64233032 1018.49453064 1640.93487549 1019.20407104 C1637.21158756 1022.90961392 1633.4328761 1026.47931322 1629.39214993 1029.8381443 C1626.86983166 1032.0411352 1626.86983166 1032.0411352 1624.36476231 1034.94403267 C1618.77920273 1041.03894852 1614.123522 1045.01678464 1605.64115906 1045.4430542 C1602.4526665 1045.52041245 1599.28016012 1045.44895011 1596.0925293 1045.36230469 C1594.32708977 1045.35891258 1592.56163337 1045.3608339 1590.79620361 1045.36761475 C1586.04147796 1045.37103386 1581.29044449 1045.30089583 1576.53657126 1045.21672726 C1571.55467093 1045.14129752 1566.57266953 1045.13463043 1561.59028625 1045.12042236 C1552.17280404 1045.08324426 1542.75700962 1044.98493852 1533.34026796 1044.86422849 C1522.61247774 1044.72972165 1511.88460346 1044.66402686 1501.15617883 1044.60388327 C1479.1031801 1044.47872413 1457.05169672 1044.26789223 1435 1044 C1435 1043.34 1435 1042.68 1435 1042 C1435.51570557 1041.76514893 1436.03141113 1041.53029785 1436.56274414 1041.28833008 C1462.41696467 1029.43623052 1487.6289191 1015.24245004 1511 999 C1511.62406738 998.56751953 1512.24813477 998.13503906 1512.89111328 997.68945312 C1527.33534073 987.65864406 1541.52670741 977.31211415 1555 966 C1556.04683585 965.12885921 1557.09371266 964.25776762 1558.140625 963.38671875 C1565.08616699 957.58306569 1571.82698998 951.59320139 1578.45556641 945.43115234 C1580.07232377 943.93298104 1581.69730208 942.44416059 1583.32421875 940.95703125 C1591.62654147 933.35839714 1599.79333382 925.70768803 1607.12890625 917.15234375 C1609.33079829 914.61947838 1611.60195826 912.15667478 1613.875 909.6875 C1660.16074366 858.7523638 1693.34537089 794.88541334 1703.3125 726.5625 C1703.47202148 725.50651611 1703.63154297 724.45053223 1703.79589844 723.36254883 C1706.60125531 702.46016301 1706.14977156 681.04907077 1706.08229065 659.99983215 C1706.07858336 657.6130197 1706.07533757 655.22620649 1706.07250541 652.83939284 C1706.06445738 647.04052237 1706.0516365 641.24167709 1706.03665729 635.44282072 C1706.0189574 628.48053713 1706.00748631 621.51824645 1705.99616829 614.55595005 C1705.97512231 601.71329854 1705.94925295 588.87066114 1705.92053413 576.02802467 C1705.89215787 563.33136191 1705.8659871 550.63469767 1705.84269524 537.93802452 C1705.84124015 537.14550379 1705.83978506 536.35298305 1705.83828588 535.53644654 C1705.83090607 531.51084274 1705.82356502 527.48523888 1705.81623887 523.45963498 C1705.76441873 495.02345541 1705.70775418 466.58728738 1705.64819336 438.15112305 C1705.59037959 410.54370566 1705.53478961 382.93628524 1705.48217773 355.32885742 C1705.47973936 354.05004318 1705.47973936 354.05004318 1705.47725173 352.7453943 C1705.46092785 344.18299595 1705.44464884 335.62059752 1705.42840267 327.05819903 C1705.39531296 309.61909569 1705.36192403 292.17999293 1705.32835388 274.7408905 C1705.32603971 273.53843302 1705.32603971 273.53843302 1705.32367879 272.31168346 C1705.22080283 218.87444559 1705.11093241 165.43722168 1705 112 C1697.38253115 112.66398121 1689.76553388 113.33319377 1682.14881897 114.00576782 C1679.56650293 114.23320392 1676.98408739 114.45951359 1674.40156555 114.68460083 C1590.00635596 122.04502293 1507.40357185 140.45524398 1335 223 C1333.67814697 223.80800049 1333.67814697 223.80800049 1332.32958984 224.63232422 C1299.38873743 244.87011257 1268.2462563 267.86894607 1238.82592773 292.92578125 C1235.51357752 295.74189007 1232.15286379 298.48067653 1228.75 301.1875 C1222.24694181 306.47715958 1216.23378869 312.2789595 1210.1640625 318.0546875 C1207.76517016 320.33682438 1205.35730589 322.60292555 1202.8984375 324.8203125 C1195.06820361 331.89073933 1187.59152759 339.29974492 1180.125 346.75 C1179.5784375 347.2939743 1179.031875 347.83794861 1178.46875 348.39840698 C1173.00508434 353.84165367 1167.60572957 359.29508965 1162.59228516 365.16259766 C1159.71509181 368.48270761 1156.65303957 371.63058546 1153.625 374.8125 C1148.52231427 380.21084835 1143.66951816 385.68243976 1139.0390625 391.4921875 C1136.93818094 394.07603034 1134.74413435 396.5399352 1132.5 399 C1127.79576612 404.17546974 1123.38284513 409.5514389 1119 415 C1118.09789338 416.10956783 1117.19553917 417.21893441 1116.29296875 418.328125 C1108.53640856 427.90021866 1101.13994255 437.72589024 1093.78564453 447.60888672 C1092.15704228 449.78970849 1090.51761351 451.96159721 1088.87109375 454.12890625 C1044.25629412 512.91589883 1007.53242766 577.41170169 974 643 C973.4445752 644.08216797 972.88915039 645.16433594 972.31689453 646.27929688 C958.44691688 673.36095945 946.35702295 701.19669837 934 729 C967.33 729 1000.66 729 1035 729 C1034.05037196 733.74814021 1032.50574466 737.51720136 1030.421875 741.81640625 C1029.87774963 742.95667519 1029.87774963 742.95667519 1029.32263184 744.11997986 C1028.54275212 745.75286078 1027.76036074 747.38454402 1026.97570801 749.01513672 C1025.31808599 752.46013785 1023.6726871 755.91092523 1022.02679443 759.36154175 C1021.19555904 761.10411369 1020.36372991 762.84640252 1019.53131104 764.58840942 C1016.05392747 771.86942459 1012.63613034 779.17611141 1009.25 786.5 C1008.21225179 788.74219315 1007.1744914 790.98438066 1006.13671875 793.2265625 C1005.62544434 794.33161133 1005.11416992 795.43666016 1004.58740234 796.57519531 C1001.75753072 802.68061505 998.90971933 808.77765757 996.0625 814.875 C995.47126158 816.14151495 994.88003438 817.40803514 994.28881836 818.67456055 C991.4179597 824.82408572 988.54542141 830.97282399 985.671875 837.12109375 C984.55194322 839.51816371 983.43215324 841.91529992 982.3125 844.3125 C981.89059891 845.21576019 981.89059891 845.21576019 981.46017456 846.13726807 C977.77860177 854.02131107 974.11151816 861.91195803 970.45703125 869.80859375 C970.06392258 870.65801544 969.6708139 871.50743713 969.26579285 872.38259888 C968.45930251 874.12534245 967.65281963 875.86808947 966.84634399 877.61083984 C960.15445327 892.07111595 953.42632535 906.5130361 946.62902832 920.92407227 C941.65077294 931.47878604 936.71129944 942.05039859 931.8046875 952.63867188 C927.75867878 961.36979765 923.69613691 970.09307183 919.625 978.8125 C919.34162781 979.41944702 919.05825562 980.02639404 918.76629639 980.6517334 C917.4045962 983.56819803 916.04268587 986.48456446 914.68066406 989.40087891 C911.78588408 995.60001407 908.89299266 1001.80003058 906 1008 C905.34 1008 904.68 1008 904 1008 C896.54293007 992.63930726 889.21586466 977.23234057 882.08984375 961.71484375 C878.79703683 954.54640414 875.4642008 947.3968975 872.125 940.25 C871.68669357 939.3116481 871.68669357 939.3116481 871.23953247 938.3543396 C869.7540844 935.17422758 868.26827492 931.99428467 866.78222656 928.81445312 C864.14353499 923.16768923 861.50838121 917.51927447 858.87298584 911.87097168 C857.41547123 908.74724569 855.95772374 905.62362839 854.5 902.5 C853.91666555 901.25000052 853.33333222 900.00000052 852.75 898.75 C852.46125 898.13125 852.1725 897.5125 851.875 896.875 C849.25000003 891.25000006 849.25000003 891.25000006 848.37501526 889.37503052 C847.79163329 888.12492775 847.20824909 886.87482603 846.62486267 885.62472534 C845.16725519 882.50130616 843.70968633 879.37786897 842.25219727 876.25439453 C839.61857662 870.61050792 836.98467178 864.96675483 834.34933472 859.32366943 C827.84755016 845.40124066 821.35876001 831.47296646 814.89208984 817.53417969 C809.21289755 805.29652494 803.5054893 793.07209251 797.796875 780.84814453 C795.01626804 774.89369618 792.23758895 768.93834806 789.45870972 762.98309326 C788.0571764 759.9795826 786.6555373 756.97612131 785.25390625 753.97265625 C784.72941895 752.8448877 784.20493164 751.71711914 783.66455078 750.55517578 C782.46601942 747.99533217 781.25658676 745.44264628 780.03466797 742.89404297 C779.71014145 742.21216415 779.38561493 741.53028534 779.05125427 740.82774353 C778.42383451 739.51003954 777.79192191 738.19446272 777.15492249 736.88136292 C775.81240105 734.05056633 775 732.17644073 775 729 C808.66 729 842.32 729 877 729 C873.37 721.08 869.74 713.16 866 705 C864.205625 701.060625 862.41125 697.12125 860.5625 693.0625 C845.32526104 659.78398829 829.43736672 626.49949523 811.46289062 594.60058594 C809.79103349 591.62851948 808.1374765 588.6466 806.484375 585.6640625 C800.58084232 575.03455722 794.6246132 564.45237167 788.27246094 554.08398438 C786.74810489 551.58745652 785.23747584 549.08281078 783.7265625 546.578125 C776.68123349 534.9181926 769.50919174 523.36666945 762 512 C761.40461426 511.09668945 760.80922852 510.19337891 760.19580078 509.26269531 C743.66089141 484.20879441 726.47199791 459.66910342 708 436 C707.5555957 435.42942871 707.11119141 434.85885742 706.65332031 434.27099609 C698.34308277 423.60842049 689.8420249 413.1219661 681.07714844 402.82910156 C678.24181176 399.49329546 675.48018329 396.11049296 672.75 392.6875 C668.25627715 387.15551628 663.40140723 381.99305161 658.49121094 376.83276367 C655.36309393 373.54260457 652.29559021 370.22260315 649.3203125 366.79296875 C646.81704329 363.90785087 644.24328045 361.16139148 641.5 358.5 C638.79616607 355.83245914 636.20744465 353.14540508 633.75 350.25 C626.78280078 342.14596175 619.03475589 334.58412055 610.890625 327.671875 C608.66352921 325.70245971 606.58785046 323.61625658 604.5 321.5 C601.16879193 318.12899935 597.74888372 314.9548597 594.15234375 311.87109375 C591.61947838 309.66920171 589.15667478 307.39804174 586.6875 305.125 C582.20337072 301.03562213 577.59732762 297.15380979 572.875 293.34375 C570.30624533 291.24965652 567.77927658 289.11786659 565.26196289 286.96289062 C558.91024502 281.52911677 552.41097995 276.34409388 545.73632812 271.31103516 C543.92899644 269.94638792 542.12848186 268.57305128 540.328125 267.19921875 C524.98443532 255.53934069 509.1620161 244.4959753 493 234 C492.30680664 233.54979492 491.61361328 233.09958984 490.89941406 232.63574219 C438.33557517 198.65672537 382.25432446 171.9558813 323 152 C321.36973877 151.4423999 321.36973877 151.4423999 319.70654297 150.87353516 C269.06210941 133.60341897 216.11284947 123.46924274 163.0625 117.25 C162.2610556 117.15499207 161.45961121 117.05998413 160.63388062 116.96209717 C148.20852356 115.5069286 135.75328959 114.45519325 123.28686523 113.42871094 C121.60448231 113.28946642 119.92210666 113.15013398 118.23973846 113.01071167 C114.15990871 112.67279514 110.07998268 112.33606486 106 112 C105.90436166 162.35252323 105.80884674 212.7050467 105.71398926 263.05757141 C105.71187465 264.18002486 105.71187465 264.18002486 105.70971733 265.32515413 C105.67906171 281.59784752 105.64842831 297.87054094 105.61781773 314.14323441 C105.60280058 322.12633272 105.58777853 330.10943101 105.57275391 338.0925293 C105.57125906 338.88683475 105.56976422 339.6811402 105.56822408 340.49951552 C105.51999399 366.12602755 105.47144209 391.75253895 105.42271865 417.37905005 C105.3725428 443.77038447 105.32270087 470.16171951 105.2732639 496.55305534 C105.26623984 500.30268705 105.25921206 504.05231875 105.25218201 507.80195045 C105.25079886 508.53974569 105.24941571 509.27754093 105.24799064 510.0376936 C105.22594626 521.79147573 105.20356217 533.54525719 105.18104266 545.29903842 C105.15826818 557.18983663 105.13587147 569.0806355 105.11383021 580.97143509 C105.10193402 587.38392024 105.08988068 593.79640501 105.07737541 600.20888901 C105.07506334 601.40224482 105.07275126 602.59560063 105.07036912 603.82511874 C105.06578631 606.19046251 105.06116904 608.5558062 105.05651629 610.92114983 C105.04561512 616.61101461 105.03637292 622.30087328 105.03076935 627.9907459 C105.02848159 630.20647903 105.02615476 632.42221213 105.02378845 634.63794518 C105.02264349 635.72759141 105.02149853 636.81723764 105.02031887 637.93990346 C105.01075166 644.88426087 104.98275063 651.82833312 104.94352946 658.77258423 C104.91793159 663.54410057 104.90047151 668.31562993 104.88407904 673.08718578 C104.87443331 675.31794595 104.86120641 677.54869444 104.84384197 679.77940788 C104.21349165 761.87584192 135.60189203 836.53927959 188 899 C189.24136719 900.50240234 189.24136719 900.50240234 190.5078125 902.03515625 C200.5251898 914.0975011 211.3156986 925.39279816 222.375 936.5 C223.11177979 937.24145264 223.84855957 937.98290527 224.60766602 938.74682617 C229.2435793 943.36915206 234.03286752 947.73793704 239 952 C240.17952724 953.03385499 241.35794254 954.06898019 242.53515625 955.10546875 C282.44056217 990.04793422 327.56926305 1020.2193289 376 1042 C376 1042.66 376 1043.32 376 1044 C352.92084994 1044.32776678 329.84208628 1044.57427161 306.76107693 1044.72537041 C296.04280502 1044.79740961 285.32598329 1044.89553022 274.60864258 1045.05615234 C265.26182687 1045.19616686 255.91606174 1045.28612448 246.5682264 1045.31723893 C241.62283393 1045.33541486 236.68044548 1045.3777858 231.73602104 1045.48022079 C197.5898537 1046.16092628 197.5898537 1046.16092628 189.09887028 1039.07856941 C186.82799058 1036.73294877 184.89206237 1034.32102655 183.10054207 1031.59387589 C181.60043719 1029.42132741 179.75366025 1027.87246417 177.6875 1026.25 C173.72167404 1022.8433469 170.10221546 1019.11561626 166.4296875 1015.3984375 C164.38510583 1013.3801527 162.31163982 1011.48500482 160.125 1009.625 C152.39211582 1002.99009126 145.24112961 995.61336585 138.640625 987.859375 C136.83852211 985.81699172 134.94061053 983.91098289 133 982 C129.11956225 978.16391011 125.55332421 974.13779623 122 970 C121.04383217 968.90679629 120.08671845 967.81441953 119.12890625 966.72265625 C54.48464552 892.89304455 8.89986386 804.57085263 -0.35283373 631.98684909 C-0.33683788 623.58049341 -0.33885787 615.17416289 -0.34124239 606.76779574 C-0.34515754 591.26171364 -0.33526185 575.75567029 -0.31719017 560.24959946 C-0.29937172 544.92113934 -0.28787882 529.5926954 -0.28463173 514.26422501 C-0.28442551 513.30721018 -0.28421929 512.35019536 -0.28400682 511.36418009 C-0.28299167 506.50297361 -0.28208758 501.64176713 -0.2812262 496.78056063 C-0.27494342 462.44728338 -0.25478319 428.11402715 -0.22631836 393.78076172 C-0.19871628 360.44938264 -0.17748942 327.11800933 -0.16479492 293.78662109 C-0.16440034 292.75720629 -0.16400576 291.72779149 -0.16359923 290.6671823 C-0.15964329 280.32833667 -0.15581591 269.98949099 -0.15208265 259.65064528 C-0.14447627 238.59368549 -0.13601251 217.53672608 -0.12702942 196.47976685 C-0.12661755 195.51183637 -0.12620568 194.54390589 -0.12578133 193.54664419 C-0.09823074 129.03108739 -0.05070129 64.51554225 0 0 Z " fill="#000000" transform="translate(85,72)"/>
<path d="M0 0 C1.44625259 0.00273422 1.44625259 0.00273422 2.92172241 0.00552368 C26.06126491 0.0790099 47.95490506 2.70988543 70.4375 8.3125 C71.30793945 8.52745117 72.17837891 8.74240234 73.07519531 8.96386719 C114.6902256 19.46573639 155.16085549 40.77678196 186.4375 70.3125 C187.68346449 71.37972946 188.93343956 72.44229557 190.1875 73.5 C200.18739651 82.24230304 209.27913537 91.83970568 217.4375 102.3125 C218.31607473 103.40236059 219.19636862 104.49083692 220.078125 105.578125 C253.55571264 147.0952811 274.78675862 199.10077076 279.4375 252.3125 C279.54707031 253.43785156 279.65664062 254.56320312 279.76953125 255.72265625 C282.31494758 286.36946885 279.90107369 317.49003285 272.4375 347.3125 C272.21723145 348.19518555 271.99696289 349.07787109 271.77001953 349.98730469 C260.69864038 393.2919148 239.40626089 433.16425103 209.4375 466.3125 C208.8791748 466.93253906 208.32084961 467.55257813 207.74560547 468.19140625 C195.96646564 481.20993646 183.45766994 492.74668783 169.4375 503.3125 C168.88900391 503.72854492 168.34050781 504.14458984 167.77539062 504.57324219 C152.75805447 515.88558442 136.44518475 525.3372861 119.4375 533.3125 C118.42284668 533.79879883 118.42284668 533.79879883 117.38769531 534.29492188 C89.73348634 547.49790857 59.87067135 555.16284592 29.4375 558.3125 C28.08350098 558.45389404 28.08350098 558.45389404 26.70214844 558.59814453 C-45.3360632 565.38435287 -116.78213804 543.77508042 -173.5625 499.3125 C-174.1615918 498.84473145 -174.76068359 498.37696289 -175.37792969 497.89501953 C-183.93100327 491.11781708 -191.64208242 483.43041848 -199.375 475.75 C-199.86359497 475.26685333 -200.35218994 474.78370667 -200.85559082 474.28591919 C-207.55117169 467.64599862 -213.74868306 460.74228165 -219.5625 453.3125 C-220.32324829 452.34074829 -220.32324829 452.34074829 -221.09936523 451.34936523 C-250.49572529 413.13355609 -268.91758138 368.83318205 -276.5625 321.3125 C-276.68850586 320.54744141 -276.81451172 319.78238281 -276.94433594 318.99414062 C-285.56246192 264.72807734 -275.63793964 206.47055776 -251.5625 157.3125 C-251.15161133 156.46623047 -250.74072266 155.61996094 -250.31738281 154.74804688 C-239.36860643 132.41555417 -225.45534623 111.8525084 -208.609375 93.54296875 C-206.71578813 91.47953726 -204.88423836 89.37675419 -203.0625 87.25 C-196.76975827 80.04168615 -189.89214979 73.45355793 -182.5625 67.3125 C-182.02802246 66.85891113 -181.49354492 66.40532227 -180.94287109 65.93798828 C-130.35405949 23.14469509 -66.18779099 -0.26068027 0 0 Z M-119.08349609 153.86425781 C-120.52607299 155.27683063 -121.99132755 156.6661261 -123.45703125 158.0546875 C-154.91538701 188.41310075 -172.00717601 232.00900586 -173.5625 275.3125 C-174.16089399 314.49049773 -162.39011296 354.60002917 -137.5625 385.3125 C-137.09344238 385.89290039 -136.62438477 386.47330078 -136.14111328 387.07128906 C-106.27783273 423.60039254 -64.34623414 448.03514381 -17.02734375 453.03125 C31.13174347 456.52802338 76.14885491 442.96596387 113.2421875 411.96875 C115.69805232 409.80319508 118.07705117 407.58157662 120.4375 405.3125 C120.90607422 404.86970703 121.37464844 404.42691406 121.85742188 403.97070312 C150.72042092 376.60903043 168.11954263 339.51628294 173.4375 300.3125 C173.57027344 299.36375 173.70304687 298.415 173.83984375 297.4375 C178.90788865 253.00532556 164.75577483 208.49727753 138.05859375 173.1640625 C135.91287996 170.48479912 133.70822323 167.88650476 131.4375 165.3125 C131.00050781 164.81524414 130.56351563 164.31798828 130.11328125 163.80566406 C124.58892238 157.55014005 118.98986833 151.51142832 112.4375 146.3125 C111.64811035 145.67924805 111.64811035 145.67924805 110.84277344 145.03320312 C88.75453977 127.44464786 64.08802922 115.27856451 36.4375 109.3125 C35.73786133 109.15023926 35.03822266 108.98797852 34.31738281 108.82080078 C-19.60306681 96.61881206 -80.02113321 115.52222967 -119.08349609 153.86425781 Z " fill="#000000" transform="translate(1454.5625,436.6875)"/>
<path d="M0 0 C0.83402344 0.70511719 1.66804688 1.41023438 2.52734375 2.13671875 C16.32358127 14.14062455 29.16718209 27.26591601 40 42 C40.73863281 42.94359375 41.47726562 43.8871875 42.23828125 44.859375 C86.82935174 102.202066 104.68649588 177.42074393 96 249 C88.90758048 300.50796411 68.9281545 348.62630739 36 389 C35.58169922 389.51981445 35.16339844 390.03962891 34.73242188 390.57519531 C22.49769279 405.6999461 8.57714107 420.30598579 -7 432 C-8.15984885 432.91019224 -9.3186223 433.82175582 -10.4765625 434.734375 C-70.08437731 481.17311009 -145.65806518 499.49546095 -220.14501953 490.62548828 C-274.23860063 483.39841064 -325.14405468 460.06900895 -366 424 C-367.23363281 422.93265625 -367.23363281 422.93265625 -368.4921875 421.84375 C-379.91212691 411.80918029 -390.71355004 401.04821947 -400 389 C-400.79664063 387.99710938 -401.59328125 386.99421875 -402.4140625 385.9609375 C-449.71233469 326.08353338 -468.43881386 250.13150411 -459.62548828 174.79882812 C-453.44647663 128.27274286 -435.14076734 83.50525799 -407 46 C-406.5373877 45.38044434 -406.07477539 44.76088867 -405.59814453 44.12255859 C-398.92516185 35.24656778 -391.71617649 26.98058002 -384 19 C-383.36868164 18.34676758 -382.73736328 17.69353516 -382.08691406 17.02050781 C-374.11828118 8.8203408 -366.10593541 0.94730767 -357 -6 C-355.83567008 -6.91632697 -354.67162636 -7.83301768 -353.5078125 -8.75 C-311.97232863 -41.07611416 -260.5364561 -61.70105513 -208 -66 C-206.81792969 -66.10957031 -205.63585937 -66.21914063 -204.41796875 -66.33203125 C-130.51449166 -72.33718919 -56.11025946 -48.51979308 0 0 Z M-312.0625 97.1875 C-342.37196474 131.43325887 -358.26348801 177.39605239 -355.7734375 223.0078125 C-352.45588194 269.73081074 -331.5957867 313.13121727 -296.3671875 344.1640625 C-266.55349388 369.64121887 -228.41710243 385.80868153 -189 387 C-187.94683594 387.03996094 -186.89367187 387.07992188 -185.80859375 387.12109375 C-138.49340973 388.05314257 -94.08705578 369.43887893 -60.0546875 336.984375 C-27.42266956 305.3079364 -8.69124892 261.09063921 -7.83325195 215.72216797 C-7.38750275 166.64780296 -27.17467678 122.78349114 -60.875 87.8125 C-66.83478556 82.00479828 -73.3110399 76.93248076 -80 72 C-80.56783203 71.5771875 -81.13566406 71.154375 -81.72070312 70.71875 C-150.35503759 20.28709207 -245.96785941 32.73595402 -312.0625 97.1875 Z " fill="#000000" transform="translate(702,502)"/>
<path d="M0 0 C33.99 0 67.98 0 103 0 C108.625 11.25 108.625 11.25 110.5871582 16.18408203 C111.24727654 17.8346611 111.24727654 17.8346611 111.92073059 19.51858521 C112.37614731 20.67003021 112.83156403 21.82147522 113.30078125 23.0078125 C113.7820195 24.2144455 114.26325775 25.42107849 114.75907898 26.66427612 C116.02379941 29.83551468 117.28332386 33.00879062 118.54168701 36.18255615 C119.83253266 39.43547902 121.12840667 42.68639732 122.42382812 45.9375 C124.95407577 52.28974045 127.47882648 58.6441528 130 65 C132.85204872 58.69525483 135.52901804 52.33505008 138.1171875 45.91796875 C138.89693694 43.99666423 139.67689128 42.07544285 140.45703125 40.15429688 C141.66574373 37.17363834 142.87301273 34.19242458 144.07666016 31.2097168 C145.25244596 28.29816698 146.43438673 25.38917462 147.6171875 22.48046875 C147.9673996 21.60819138 148.31761169 20.735914 148.67843628 19.83720398 C151.46956953 12.9926214 154.66525046 6.66949908 158 0 C191.66 0 225.32 0 260 0 C259.05037196 4.74814021 257.50574466 8.51720136 255.421875 12.81640625 C255.05912476 13.57658554 254.69637451 14.33676483 254.32263184 15.11997986 C253.54275212 16.75286078 252.76036074 18.38454402 251.97570801 20.01513672 C250.31808599 23.46013785 248.6726871 26.91092523 247.02679443 30.36154175 C246.19555904 32.10411369 245.36372991 33.84640252 244.53131104 35.58840942 C241.05392747 42.86942459 237.63613034 50.17611141 234.25 57.5 C233.21225179 59.74219315 232.1744914 61.98438066 231.13671875 64.2265625 C230.62544434 65.33161133 230.11416992 66.43666016 229.58740234 67.57519531 C226.75753072 73.68061505 223.90971933 79.77765757 221.0625 85.875 C220.47126158 87.14151495 219.88003438 88.40803514 219.28881836 89.67456055 C216.4179597 95.82408572 213.54542141 101.97282399 210.671875 108.12109375 C209.55194322 110.51816371 208.43215324 112.91529992 207.3125 115.3125 C207.0312326 115.91467346 206.74996521 116.51684692 206.46017456 117.13726807 C202.77860177 125.02131107 199.11151816 132.91195803 195.45703125 140.80859375 C194.86736824 142.08272629 194.86736824 142.08272629 194.26579285 143.38259888 C193.45930251 145.12534245 192.65281963 146.86808947 191.84634399 148.61083984 C185.15445327 163.07111595 178.42632535 177.5130361 171.62902832 191.92407227 C166.65077294 202.47878604 161.71129944 213.05039859 156.8046875 223.63867188 C152.75867878 232.36979765 148.69613691 241.09307183 144.625 249.8125 C144.34162781 250.41944702 144.05825562 251.02639404 143.76629639 251.6517334 C142.4045962 254.56819803 141.04268587 257.48456446 139.68066406 260.40087891 C136.78588408 266.60001407 133.89299266 272.80003058 131 279 C130.34 279 129.68 279 129 279 C121.54293007 263.63930726 114.21586466 248.23234057 107.08984375 232.71484375 C103.79703683 225.54640414 100.4642008 218.3968975 97.125 211.25 C96.83279572 210.62443207 96.54059143 209.99886414 96.23953247 209.3543396 C94.7540844 206.17422758 93.26827492 202.99428467 91.78222656 199.81445312 C89.14353499 194.16768923 86.50838121 188.51927447 83.87298584 182.87097168 C82.41547123 179.74724569 80.95772374 176.62362839 79.5 173.5 C78.91666555 172.25000052 78.33333222 171.00000052 77.75 169.75 C77.46125 169.13125 77.1725 168.5125 76.875 167.875 C74.24999999 162.24999998 74.24999999 162.24999998 73.37501526 160.37503052 C72.79163329 159.12492775 72.20824909 157.87482603 71.62486267 156.62472534 C70.16725519 153.50130616 68.70968633 150.37786897 67.25219727 147.25439453 C64.61857662 141.61050792 61.98467178 135.96675483 59.34933472 130.32366943 C52.84755016 116.40124066 46.35876001 102.47296646 39.89208984 88.53417969 C34.21289755 76.29652494 28.5054893 64.07209251 22.796875 51.84814453 C20.01626804 45.89369618 17.23758895 39.93834806 14.45870972 33.98309326 C13.0571764 30.9795826 11.6555373 27.97612131 10.25390625 24.97265625 C9.72941895 23.8448877 9.20493164 22.71711914 8.66455078 21.55517578 C7.46601942 18.99533217 6.25658676 16.44264628 5.03466797 13.89404297 C4.71014145 13.21216415 4.38561493 12.53028534 4.05125427 11.82774353 C3.42383451 10.51003954 2.79192191 9.19446272 2.15492249 7.88136292 C0.81240105 5.05056633 0 3.17644073 0 0 Z " fill="#F6A817" transform="translate(860,801)"/>
</svg>
